<?xml version="1.0" encoding="utf-8"?>
<svg viewBox="0 0 1024 1024" xmlns="http://www.w3.org/2000/svg">
  <path d="M0 0 C1.33707219 -0.00195471 2.6741438 -0.00434423 4.01121452 -0.00712797 C7.69108294 -0.0135161 11.37092949 -0.01369055 15.05080239 -0.01285056 C19.05215653 -0.01302029 23.05350289 -0.018929 27.05485314 -0.02409142 C34.99346562 -0.03341319 42.93207253 -0.03733875 50.8706898 -0.03961039 C60.37838218 -0.04257347 69.88606717 -0.05127138 79.39375567 -0.06002467 C102.37166191 -0.08086346 125.34956942 -0.09133714 148.3274829 -0.10015428 C159.19523832 -0.10436074 170.06299319 -0.10958266 180.93074815 -0.11483881 C218.12566259 -0.13272661 255.3205772 -0.14772394 292.5154953 -0.155159 C294.85028613 -0.15563375 297.18507696 -0.15610964 299.51986779 -0.15658666 C301.2566434 -0.15694122 301.2566434 -0.15694122 303.0285054 -0.15730295 C308.89480055 -0.15850416 314.76109571 -0.1597196 320.62739086 -0.16094494 C321.79157521 -0.16118509 322.95575956 -0.16142524 324.15522222 -0.16167267 C361.91847128 -0.16956925 399.68168896 -0.19300971 437.44492431 -0.22550088 C477.36278444 -0.25978326 517.2806262 -0.27950854 557.19850129 -0.28280324 C561.57869479 -0.28322079 565.95888828 -0.28370035 570.33908176 -0.28422642 C571.41762256 -0.28434961 572.49616335 -0.2844728 573.6073872 -0.28459973 C590.97711639 -0.28693346 608.34680919 -0.30260279 625.7165254 -0.32306826 C643.1675675 -0.34330378 660.61856577 -0.34881429 678.06961743 -0.33929763 C688.44112012 -0.33407421 698.81247713 -0.3399999 709.18395892 -0.3618323 C716.10982309 -0.37531175 723.03558667 -0.37428872 729.96145178 -0.36143034 C733.90894683 -0.35451478 737.8561628 -0.3539285 741.80363325 -0.37099043 C745.39721169 -0.38639633 748.99028677 -0.38327159 752.58385033 -0.36558015 C754.48012174 -0.36096138 756.37641031 -0.37591312 758.2726213 -0.39173993 C768.03348735 -0.3125917 776.22879146 1.70105227 783.50458813 8.49750233 C790.4131931 16.21671695 791.27866685 24.75944736 791.27021313 34.67328358 C791.27664082 36.34915043 791.27664082 36.34915043 791.28319836 38.05887318 C791.28893188 40.42073357 791.28944914 42.78261162 791.28510571 45.14447498 C791.28196104 48.72600636 791.30536505 52.30669888 791.33076 55.88812733 C791.33303487 58.19151171 791.33373562 60.4948983 791.33271313 62.79828358 C791.34192287 63.85496235 791.35113262 64.91164112 791.36062145 66.00034046 C791.29994905 75.9436499 790.24171664 86.7228489 782.96943188 94.13422108 C774.39814285 102.32406531 762.69826052 102.57644512 751.47511387 102.5117445 C750.13648502 102.51487995 748.79785873 102.51932816 747.45923805 102.5249576 C743.79363574 102.53659189 740.12827188 102.52967539 736.46267365 102.51962374 C732.46991724 102.51199293 728.47719653 102.52180156 724.48444521 102.52935374 C717.49089136 102.54017762 710.49740702 102.53986699 703.50384998 102.53221226 C693.10426434 102.52086043 682.70473727 102.52666827 672.30515201 102.53583718 C653.73162163 102.55163324 635.1581222 102.55026577 616.58458887 102.54160044 C600.33187112 102.53405504 584.07916472 102.53208309 567.82644558 102.53566837 C566.20959276 102.53601211 566.20959276 102.53601211 564.56007624 102.53636278 C560.18458991 102.53729679 555.80910359 102.53825199 551.43361727 102.53924207 C510.38691613 102.54841949 469.34023471 102.54009779 428.29353661 102.52395138 C391.81862915 102.5097125 355.34375312 102.5109901 318.86884594 102.52533436 C277.89440129 102.54139423 236.91997407 102.54777067 195.94552672 102.53849757 C191.57861336 102.5375354 187.21170001 102.53659688 182.84478664 102.53566837 C181.76953073 102.53543114 180.69427482 102.53519391 179.58643539 102.53494949 C163.34175495 102.53153561 147.0970871 102.53553057 130.85240841 102.54310703 C112.38493609 102.55167722 93.91749959 102.54955642 75.45003174 102.5332648 C65.11165409 102.52444562 54.77335398 102.5238958 44.43497831 102.53520332 C37.53260257 102.5419209 30.6302891 102.53776114 23.7279226 102.52468902 C19.79313625 102.51754095 15.85850414 102.51513686 11.92372255 102.52590697 C8.34292081 102.53560837 4.76240995 102.53146593 1.18162934 102.51636498 C-0.71024535 102.51192675 -2.60213719 102.52216321 -4.49398589 102.53302783 C-15.22933802 102.46192935 -22.95834491 100.32583812 -31.03056812 93.13422108 C-38.42248087 85.5425269 -38.49766163 76.81451373 -38.49931812 66.79828358 C-38.50693165 65.52375324 -38.51454517 64.24922291 -38.52238941 62.93607044 C-38.5331649 60.24789487 -38.53743192 57.56060206 -38.53154469 54.87250233 C-38.5256556 51.45409261 -38.55623318 48.03710664 -38.59666157 44.61897182 C-38.62896376 41.32460472 -38.62442209 38.03028434 -38.62431812 34.73578358 C-38.64071339 33.52193989 -38.65710865 32.3080962 -38.67400074 31.05746937 C-38.59574653 21.34742644 -36.22901047 14.36424451 -29.59306812 7.19672108 C-20.91009925 -0.77360672 -11.11722022 -0.01339056 0 0 Z " fill="#FEFEFE" transform="matrix(1, 0, 0, 1, 134.0305633544922, 723.8657836914062)"/>
  <path d="M0 0 C0.71558667 -0.00175304 1.43117334 -0.00350607 2.16844445 -0.00531223 C4.56065852 -0.00995547 6.95281137 -0.00751107 9.34502792 -0.00507832 C11.07977115 -0.00694713 12.81451395 -0.00924812 14.54925609 -0.01194364 C19.31227127 -0.01805931 24.0752689 -0.01792831 28.83828712 -0.01674926 C33.97680288 -0.0165452 39.115313 -0.02206458 44.25382614 -0.02680683 C54.31976746 -0.03511271 64.38570292 -0.03786165 74.45164737 -0.03841921 C82.63407258 -0.03889441 90.81649585 -0.04094934 98.99892044 -0.04411983 C122.19894155 -0.0529263 145.39895803 -0.05753923 168.59898081 -0.05678936 C169.84965817 -0.0567494 171.10033553 -0.05670945 172.3889122 -0.05666828 C173.64111709 -0.0566274 174.89332199 -0.05658652 176.18347248 -0.0565444 C196.47726402 -0.05613795 216.77103701 -0.06570728 237.06482318 -0.07980665 C257.90365791 -0.09417042 278.74248358 -0.10107683 299.58132339 -0.10021287 C311.28019733 -0.0998809 322.97905181 -0.10262812 334.6779213 -0.11339092 C344.63863548 -0.12249593 354.5993214 -0.12467116 364.56003794 -0.1178815 C369.64083766 -0.11461629 374.72158314 -0.11455968 379.8023777 -0.12323475 C384.45713764 -0.13110056 389.11180033 -0.12966743 393.7665579 -0.12095062 C395.44688363 -0.11941582 397.12721661 -0.12123104 398.80753377 -0.12681069 C425.00001296 -0.20799723 425.00001296 -0.20799723 435.15697861 9.64425945 C440.41298722 15.5885549 442.68976664 21.68660236 442.77148056 29.47287273 C442.7843158 30.54143505 442.79715103 31.60999737 442.81037521 32.71094036 C442.82145561 34.43750362 442.82145561 34.43750362 442.83275986 36.19894695 C442.8408316 37.3903529 442.84890335 38.58175884 442.8572197 39.809268 C442.87105003 42.33270092 442.88177688 44.85615246 442.88964462 47.37961102 C442.90682003 51.21819343 442.95071337 55.05590613 442.99486923 58.89425945 C443.00499995 61.34998231 443.01351487 63.80571246 443.02025986 66.26144695 C443.03776794 67.40034374 443.05527603 68.53924053 443.07331467 69.71264935 C443.04619105 79.79488612 440.65859764 87.91651203 433.65697861 95.37082195 C426.43077588 101.52951746 418.67241946 103.25215656 409.40381813 103.25726891 C408.6871624 103.25902194 407.97050667 103.26077498 407.2321341 103.26258114 C404.82424033 103.26724303 402.41640689 103.26477514 400.00851059 103.26234722 C398.26724388 103.26421511 396.52597758 103.26651572 394.78471196 103.26921254 C389.99437496 103.2753399 385.20405539 103.27519584 380.41371536 103.27401817 C375.24926101 103.27381439 370.0848123 103.27933076 364.92036057 103.28407574 C354.79933388 103.29238841 344.67831302 103.29513087 334.55728321 103.29568812 C326.32999704 103.29616306 318.1027128 103.29821676 309.87542725 103.30138874 C286.55291479 103.31019765 263.23040694 103.31480784 239.90789281 103.31405827 C238.65011065 103.31401831 237.3923285 103.31397835 236.09643173 103.31393719 C234.83711461 103.31389631 233.57779748 103.31385543 232.28031923 103.31381331 C211.87646963 103.31340696 191.47263849 103.32297308 171.06879424 103.33707555 C150.12154164 103.3514394 129.17429805 103.35834571 108.22704041 103.35748178 C96.46553844 103.35714977 84.70405582 103.3598984 72.94255829 103.37065983 C62.92689896 103.37976502 52.91126776 103.38193998 42.89560609 103.3751504 C37.78646665 103.37188507 32.67738115 103.37182901 27.56824684 103.38050365 C22.88750136 103.3883691 18.20685259 103.38693671 13.52610947 103.37821952 C11.83630277 103.37668462 10.14648885 103.37850033 8.45669065 103.3840796 C-16.99098987 103.46250963 -16.99098987 103.46250963 -26.40552139 95.12863445 C-34.7901537 85.93432735 -35.55926967 76.72449476 -35.57349014 64.76925945 C-35.57681854 63.78423443 -35.58014694 62.7992094 -35.5835762 61.78433514 C-35.58862114 59.70672348 -35.59098528 57.62910379 -35.59082413 55.55148602 C-35.59300481 52.40258429 -35.61117075 49.25403656 -35.63013077 46.10519695 C-35.63306651 44.0765523 -35.63505009 42.04790601 -35.63599014 40.01925945 C-35.64317566 39.09179913 -35.65036118 38.1643388 -35.65776443 37.20877361 C-35.62158285 26.65369946 -34.62014692 17.27878285 -27.40552139 9.12863445 C-19.11465795 1.56788619 -11.09414406 0.00615219 0 0 Z " fill="#FDFEFE" transform="matrix(1, 0, 0, 1, 482.405517578125, 497.8713684082031)"/>
  <path d="M0 0 C1.07764333 -0.00307895 1.07764333 -0.00307895 2.17705724 -0.0062201 C4.57291611 -0.01185303 6.96871682 -0.01043748 9.36458111 -0.00901413 C11.10431235 -0.01159988 12.844043 -0.01461362 14.58377284 -0.01801753 C19.35592843 -0.02606582 24.12806896 -0.02787589 28.90023053 -0.028615 C34.05031843 -0.03046928 39.20039858 -0.03801838 44.35048199 -0.04475021 C55.60658514 -0.05831746 66.86268472 -0.06435542 78.11879468 -0.06876087 C85.14830205 -0.07152536 92.17780805 -0.07576303 99.20731449 -0.08026505 C118.67448655 -0.09245438 138.14165752 -0.10275516 157.60883331 -0.10614014 C159.47675901 -0.10646949 159.47675901 -0.10646949 161.38242058 -0.10680549 C162.63065378 -0.10702377 163.87888698 -0.10724204 165.16494542 -0.10746694 C167.69427447 -0.1079104 170.22360351 -0.10835696 172.75293255 -0.10880661 C174.00756256 -0.10902804 175.26219256 -0.10924947 176.55484166 -0.10947761 C196.89061062 -0.11342682 217.22634377 -0.13088612 237.5620989 -0.15416613 C258.44616588 -0.17788074 279.3302149 -0.190342 300.21429557 -0.19150805 C311.93775871 -0.19242462 323.66117516 -0.19817255 335.38462543 -0.21632767 C345.3654527 -0.23172993 355.34621884 -0.23684825 365.32705573 -0.22858956 C370.41801502 -0.22468387 375.50885121 -0.22560891 380.59979534 -0.23964691 C385.26380624 -0.25239 389.92760157 -0.25118468 394.59161218 -0.2390562 C396.27527436 -0.23709995 397.95895183 -0.24017428 399.64259253 -0.24890056 C411.06156475 -0.30431937 422.43663614 -0.31064809 431.67065716 7.33064651 C440.38280631 16.1190508 441.7661739 25.01664103 441.72143841 36.90877151 C441.72335186 38.03408783 441.72526531 39.15940414 441.72723675 40.31882095 C441.72859379 42.69149881 441.72493103 45.06418422 441.7165556 47.43684769 C441.7058596 51.05331111 441.71646238 54.66927667 441.72925091 58.28572464 C441.72792903 60.59757469 441.72536606 62.90942443 441.72143841 65.22127151 C441.72548687 66.29545837 441.72953533 67.36964523 441.73370647 68.47638321 C441.67031902 78.71077402 440.05089612 87.21586299 432.81909466 94.86189651 C425.24133098 101.75851289 417.10327152 103.25314736 407.10807705 103.26285553 C406.38659113 103.26490816 405.66510522 103.2669608 404.92175609 103.26907563 C402.50346481 103.27473136 400.08523073 103.27329015 397.66693401 103.27186966 C395.91584179 103.27445411 394.16475015 103.27746749 392.41365933 103.28087306 C387.60084974 103.28893682 382.78805507 103.29073228 377.97523952 103.29147053 C372.78491711 103.29332214 367.59460242 103.30086997 362.40428448 103.30760574 C351.05515779 103.32118463 339.70603463 103.32721294 328.35690117 103.3316164 C321.27079411 103.33437928 314.18468841 103.33861669 307.09858227 103.34312057 C287.47965232 103.3553121 267.86072347 103.36561201 248.24178982 103.36899567 C246.98628138 103.36921523 245.73077295 103.3694348 244.4372188 103.36966102 C242.54945425 103.36998843 242.54945425 103.36998843 240.62355304 103.37032247 C238.07333644 103.37076593 235.52311985 103.3712125 232.97290325 103.37166214 C231.70790809 103.37188357 230.44291292 103.372105 229.13958457 103.37233314 C208.6381166 103.37628191 188.13668416 103.39373886 167.63522992 103.41702166 C146.58737929 103.44073212 125.53954649 103.45319736 104.49168229 103.45436358 C92.67376505 103.45528046 80.85589411 103.46103595 69.03798962 103.4791832 C58.97583829 103.49457995 48.91374759 103.49970709 38.85158673 103.49144509 C33.71823503 103.48753726 28.58500543 103.48847483 23.45166874 103.50250244 C18.75000563 103.51523294 14.04855648 103.51405126 9.3468937 103.50191173 C7.64838481 103.49995328 5.9498608 103.50303999 4.25137314 103.51175609 C-8.04351484 103.57084197 -19.2839902 103.23265083 -28.54418659 94.13142776 C-36.22414897 85.22267141 -36.85731154 75.35324019 -36.80981159 63.97127151 C-36.81172504 62.9413559 -36.8136385 61.91144028 -36.81560993 60.85031509 C-36.81696209 58.68807605 -36.81333392 56.52582863 -36.80492878 54.3636055 C-36.79420456 51.07443727 -36.80486308 47.78581377 -36.81762409 44.49666214 C-36.81630254 42.38403074 -36.81374024 40.27139968 -36.80981159 38.15877151 C-36.81386005 37.18665222 -36.81790852 36.21453293 -36.82207966 35.21295547 C-36.75316798 25.06868287 -35.26875235 16.99399696 -28.54418659 9.13142776 C-19.95851988 1.26823398 -11.35208851 0.01111632 0 0 Z " fill="#FDFEFE" transform="matrix(1, 0, 0, 1, 483.544189453125, 299.8685607910156)"/>
  <path d="M0 0 C1.26328125 0.350625 2.5265625 0.70125 3.828125 1.0625 C33.72108619 10.0679109 59.12201857 31.88037752 74.13867188 59.06103516 C83.99881218 77.81024133 88.37508533 97.19149997 88.37060547 118.30957031 C88.37500757 120.62898735 88.41154583 122.9465387 88.44921875 125.265625 C88.51129763 133.51164136 88.06460301 140.6150432 84 148 C83.63197266 148.67023193 83.26394531 149.34046387 82.88476562 150.03100586 C79.19889823 156.30571387 72.55918962 159.80537606 65.83551502 162.06214333 C61.79658608 163.04973859 58.06242684 163.28517782 53.93644714 163.26742554 C52.76199609 163.27422221 52.76199609 163.27422221 51.56381875 163.28115618 C48.9554894 163.29375744 46.34736999 163.2921826 43.73901367 163.29052734 C41.86260206 163.29651526 39.98619292 163.30332141 38.10978699 163.31088257 C33.02290221 163.32852278 27.93608476 163.33323711 22.84917235 163.33451414 C19.66820755 163.33593739 16.48725978 163.34021029 13.30629921 163.34550858 C2.20085186 163.36400216 -8.90454753 163.37218001 -20.01000977 163.37060547 C-30.34888972 163.36940419 -40.68756087 163.3905057 -51.02638799 163.4220928 C-59.91409528 163.44827524 -68.80173446 163.45897194 -77.68948001 163.45769465 C-82.99274109 163.45718561 -88.29581654 163.46283703 -93.59903908 163.48405075 C-98.58877564 163.50346629 -103.5781501 163.50353488 -108.5678997 163.48901749 C-110.39396318 163.48693243 -112.22004951 163.49161215 -114.04607391 163.5037384 C-126.26910371 163.57961979 -136.92032721 163.06038939 -146.19042969 154.13085938 C-154.06395169 144.85939418 -154.86042948 135.54410238 -154.5625 123.94580078 C-154.50009209 121.50360375 -154.48051601 119.06401093 -154.46875 116.62109375 C-154.38277352 107.91521564 -153.83321821 99.54040202 -152 91 C-151.72800781 89.71609375 -151.45601563 88.4321875 -151.17578125 87.109375 C-145.53733993 65.16792912 -134.88018043 47.05810962 -119 31 C-118.34773438 30.27554688 -117.69546875 29.55109375 -117.0234375 28.8046875 C-103.24885847 13.81648917 -83.20886355 4.64561581 -64 -1 C-63.22011719 -1.23460937 -62.44023437 -1.46921875 -61.63671875 -1.7109375 C-42.36350359 -7.04100502 -18.97777368 -5.73702468 0 0 Z " fill="#FEFEFE" transform="matrix(1, 0, 0, 1, 267, 472)"/>
  <path d="M0 0 C1.03511719 0.36222656 2.07023437 0.72445313 3.13671875 1.09765625 C24.58443425 9.19890602 41.32582154 26.45557259 50.72412109 47.11669922 C59.98132497 69.09200689 59.11967242 93.51969158 50.25 115.5 C40.28291623 136.78309617 23.74535604 152.27501147 2 161 C-20.40895477 168.76999236 -43.57424933 168.0296982 -65.19921875 158.40234375 C-74.28394048 153.85364766 -81.68617288 148.00019817 -89 141 C-89.63808594 140.42507813 -90.27617187 139.85015625 -90.93359375 139.2578125 C-105.44434488 125.74891723 -113.2708718 104.08376391 -114.26171875 84.60546875 C-115.04730874 60.62390926 -106.58093776 40.29089552 -91.296875 21.95703125 C-68.52704871 -2.19445926 -31.29806253 -12.00743279 0 0 Z " fill="#FEFEFE" transform="matrix(1, 0, 0, 1, 264, 281)"/>
</svg>