<svg xmlns="http://www.w3.org/2000/svg" xmlns:xlink="http://www.w3.org/1999/xlink" version="1.1" width="1000" height="1000" viewBox="0 0 1000 1000" xml:space="preserve">
<desc>Created with Fabric.js 3.5.0</desc>
<defs>
</defs>
<rect x="0" y="0" width="100%" height="100%" fill="rgba(255,255,255,0)"/>
<g transform="matrix(0.1953 0 0 0.1953 499.968 499.982)" id="133391">
<g style="" vector-effect="non-scaling-stroke">
		<g transform="matrix(0.1333 0 0 -0.1333 -1889.1234 -0.2253)">
<path style="stroke: none; stroke-width: 1; stroke-dasharray: none; stroke-linecap: butt; stroke-dashoffset: 0; stroke-linejoin: miter; stroke-miterlimit: 4; is-custom-font: none; font-file-url: none; fill: rgb(255,255,255); fill-rule: nonzero; opacity: 1;" transform=" translate(-5032.7527, -10800.7752)" d="M 3565 14439 c -673 -140 -1203 -309 -1728 -552 l -87 -40 l -84 -131 c -804 -1262 -1238 -2548 -1336 -3956 c -5 -80 -10 -329 -10 -555 c 0 -368 5 -514 26 -766 l 6 -77 l 162 -115 c 649 -462 1351 -820 2088 -1065 c 135 -45 138 -45 153 -26 c 43 56 231 344 290 444 c 76 129 209 380 204 384 c -2 1 -42 17 -89 36 c -190 74 -514 234 -668 330 l -43 26 l 97 75 c 52 41 101 73 107 72 c 7 -1 84 -33 172 -71 c 457 -200 967 -344 1450 -412 c 458 -64 962 -69 1415 -14 c 544 65 1130 230 1629 459 l 100 46 l 97 -77 c 89 -72 95 -79 78 -91 c -79 -58 -475 -256 -664 -333 c -58 -23 -108 -45 -112 -49 c -10 -9 160 -322 269 -496 c 104 -166 221 -335 237 -341 c 18 -7 369 115 599 208 c 574 231 1090 513 1609 882 c 167 119 176 127 182 163 c 35 235 43 1127 13 1470 c -121 1371 -520 2550 -1270 3752 c -67 107 -130 205 -142 217 c -35 39 -451 213 -770 324 c -303 104 -747 222 -1054 280 c -62 12 -120 19 -127 16 c -14 -5 -192 -362 -230 -459 l -19 -49 l -50 5 c -27 3 -129 15 -225 26 c -556 64 -1176 61 -1700 -9 c -200 -27 -183 -31 -215 43 c -15 34 -70 149 -122 255 c -109 220 -86 203 -238 171 z m 87 -3058 c 42 -11 111 -37 154 -59 c 236 -119 401 -333 476 -617 c 29 -111 36 -327 14 -452 c -62 -356 -288 -639 -593 -744 c -92 -31 -107 -33 -233 -34 c -114 0 -146 4 -210 23 c -300 94 -524 341 -611 675 c -28 104 -37 324 -19 435 c 61 379 317 686 644 772 c 99 26 277 27 378 1 z m 3134 -1 c 338 -87 591 -387 649 -770 c 68 -444 -138 -884 -497 -1059 c -107 -52 -180 -72 -299 -78 c -226 -13 -440 76 -606 250 c -88 93 -124 145 -178 260 c -265 560 12 1256 555 1396 c 105 28 270 28 376 1 z" stroke-linecap="round"/>
</g>
		<g transform="matrix(0.1333 0 0 -0.1333 -113.9211 -191.2626)">
<path style="stroke: none; stroke-width: 1; stroke-dasharray: none; stroke-linecap: butt; stroke-dashoffset: 0; stroke-linejoin: miter; stroke-miterlimit: 4; is-custom-font: none; font-file-url: none; fill: rgb(255,255,255); fill-rule: nonzero; opacity: 1;" transform=" translate(-18345.75, -12234.3241)" d="M 18205 12804 c -242 -53 -433 -236 -480 -459 c -18 -88 -18 -132 0 -218 c 85 -402 571 -600 955 -390 c 37 21 96 67 136 108 c 111 112 164 237 164 390 c 0 314 -262 566 -604 581 c -69 2 -123 -1 -171 -12 z" stroke-linecap="round"/>
</g>
		<g transform="matrix(0.1333 0 0 -0.1333 2250.212 9.1967)">
<path style="stroke: none; stroke-width: 1; stroke-dasharray: none; stroke-linecap: butt; stroke-dashoffset: 0; stroke-linejoin: miter; stroke-miterlimit: 4; is-custom-font: none; font-file-url: none; fill: rgb(255,255,255); fill-rule: nonzero; opacity: 1;" transform=" translate(-36077.0909, -10730.5323)" d="M 36799 12018 l 0 -683 l -39 82 c -173 369 -450 588 -852 675 c -140 30 -475 32 -613 5 c -300 -61 -534 -185 -740 -391 c -120 -120 -174 -191 -253 -331 c -129 -228 -200 -481 -222 -797 c -40 -562 128 -1092 450 -1419 c 296 -301 680 -433 1138 -390 c 511 47 864 267 1077 672 l 55 104 l 0 -337 l 0 -338 l 640 0 l 640 0 l 0 1915 l 0 1915 l -640 0 l -640 0 l -1 -682 z m -444 -928 c 112 -35 184 -79 266 -160 c 115 -114 172 -245 185 -425 c 22 -291 -119 -554 -359 -669 c -127 -62 -223 -80 -391 -74 c -108 4 -145 10 -211 32 c -200 68 -343 210 -412 408 c -35 100 -44 299 -19 412 c 56 249 243 433 500 492 c 97 22 351 13 441 -16 z" stroke-linecap="round"/>
</g>
		<g transform="matrix(0.1333 0 0 -0.1333 -541.9593 9.2046)">
<path style="stroke: none; stroke-width: 1; stroke-dasharray: none; stroke-linecap: butt; stroke-dashoffset: 0; stroke-linejoin: miter; stroke-miterlimit: 4; is-custom-font: none; font-file-url: none; fill: rgb(255,255,255); fill-rule: nonzero; opacity: 1;" transform=" translate(-15135.8394, -10730.5)" d="M 13000 10730 l 0 -1860 l 1033 0 c 1057 0 1179 3 1442 41 c 668 95 1207 394 1501 834 c 175 264 275 562 292 877 c 55 1000 -509 1700 -1538 1907 c -276 56 -232 54 -1527 58 l -1203 4 l 0 -1861 z m 2190 896 c 111 -22 236 -65 308 -107 c 80 -47 210 -180 260 -264 c 106 -181 146 -433 107 -685 c -57 -378 -295 -629 -683 -722 c -79 -19 -125 -21 -484 -25 l -398 -5 l 0 917 l 0 917 l 403 -5 c 314 -4 421 -9 487 -21 z" stroke-linecap="round"/>
</g>
		<g transform="matrix(0.1333 0 0 -0.1333 260.5888 48.0779)">
<path style="stroke: none; stroke-width: 1; stroke-dasharray: none; stroke-linecap: butt; stroke-dashoffset: 0; stroke-linejoin: miter; stroke-miterlimit: 4; is-custom-font: none; font-file-url: none; fill: rgb(255,255,255); fill-rule: nonzero; opacity: 1;" transform=" translate(-21154.8175, -10438.9964)" d="M 20950 12114 c -19 -2 -80 -9 -135 -15 c -140 -14 -326 -54 -453 -95 c -402 -133 -659 -359 -754 -664 c -20 -66 -23 -95 -23 -240 c 0 -129 4 -180 19 -235 c 67 -252 227 -428 504 -557 c 148 -69 332 -123 739 -217 c 215 -50 411 -98 435 -108 c 72 -28 116 -63 138 -107 c 57 -119 -10 -204 -190 -242 c -91 -20 -365 -14 -530 11 c -412 63 -813 205 -1069 379 l -81 55 l 0 -442 l 0 -442 l 105 -59 c 576 -320 1350 -448 2035 -335 c 256 43 495 132 664 249 c 153 106 292 277 350 431 c 70 188 75 481 9 684 c -73 229 -250 402 -527 515 c -143 58 -287 94 -650 161 c -486 90 -594 122 -636 191 c -59 96 9 176 184 216 c 102 23 459 22 621 -2 c 283 -41 546 -123 774 -242 c 58 -30 106 -54 108 -54 c 2 0 2 188 1 417 l -3 417 l -50 29 c -203 121 -576 237 -915 283 c -109 14 -589 28 -670 18 z" stroke-linecap="round"/>
</g>
		<g transform="matrix(0.1333 0 0 -0.1333 739.4016 48.105)">
<path style="stroke: none; stroke-width: 1; stroke-dasharray: none; stroke-linecap: butt; stroke-dashoffset: 0; stroke-linejoin: miter; stroke-miterlimit: 4; is-custom-font: none; font-file-url: none; fill: rgb(255,255,255); fill-rule: nonzero; opacity: 1;" transform=" translate(-24745.9253, -10438.7927)" d="M 24855 12114 c -336 -28 -611 -98 -860 -219 c -409 -198 -681 -498 -819 -899 c -119 -346 -111 -804 19 -1151 c 139 -369 407 -661 780 -852 c 446 -227 1097 -294 1685 -173 c 211 44 481 146 668 252 l 72 42 l 0 469 c 0 258 -3 467 -7 465 c -5 -2 -60 -29 -123 -60 c -144 -71 -319 -131 -475 -164 c -234 -49 -581 -43 -807 15 c -236 61 -421 189 -508 353 c -45 83 -60 148 -60 254 c 0 153 40 252 149 367 c 85 89 197 158 328 203 c 131 44 222 61 398 75 c 366 29 742 -58 1023 -237 c 29 -19 57 -34 62 -34 c 6 0 10 173 10 480 l 0 480 l -57 37 c -200 128 -522 235 -833 278 c -111 15 -536 28 -645 19 z" stroke-linecap="round"/>
</g>
		<g transform="matrix(0.1333 0 0 -0.1333 1271.5253 48.0536)">
<path style="stroke: none; stroke-width: 1; stroke-dasharray: none; stroke-linecap: butt; stroke-dashoffset: 0; stroke-linejoin: miter; stroke-miterlimit: 4; is-custom-font: none; font-file-url: none; fill: rgb(255,255,255); fill-rule: nonzero; opacity: 1;" transform=" translate(-28736.9342, -10439.1787)" d="M 28500 12114 c -19 -2 -78 -9 -130 -15 c -880 -99 -1495 -637 -1595 -1397 c -103 -781 293 -1466 1023 -1769 c 592 -246 1453 -224 2003 52 c 418 209 689 510 833 924 c 66 190 81 294 81 566 c -1 210 -3 253 -23 341 c -65 300 -196 547 -397 750 c -221 224 -501 380 -837 469 c -227 59 -366 76 -663 80 c -143 2 -276 1 -295 -1 z m 387 -984 c 222 -36 396 -156 483 -334 c 61 -125 74 -188 74 -356 c 0 -165 -13 -229 -72 -350 c -49 -102 -168 -223 -270 -274 c -105 -53 -213 -76 -355 -76 c -231 0 -386 56 -517 189 c -138 139 -192 282 -193 511 c -1 220 48 361 169 490 c 73 77 132 119 223 155 c 118 48 317 68 458 45 z" stroke-linecap="round"/>
</g>
		<g transform="matrix(0.1333 0 0 -0.1333 1776.6224 45.3885)">
<path style="stroke: none; stroke-width: 1; stroke-dasharray: none; stroke-linecap: butt; stroke-dashoffset: 0; stroke-linejoin: miter; stroke-miterlimit: 4; is-custom-font: none; font-file-url: none; fill: rgb(255,255,255); fill-rule: nonzero; opacity: 1;" transform=" translate(-32525, -10459.1888)" d="M 33200 12035 c -363 -74 -600 -373 -731 -920 l -24 -100 l -3 483 l -2 482 l -620 0 l -620 0 l 0 -1555 l 0 -1555 l 634 0 l 635 0 l 4 613 c 4 515 7 625 21 697 c 25 131 53 216 104 320 c 86 177 255 315 451 369 c 232 64 527 43 721 -52 c 36 -18 68 -33 73 -35 c 4 -2 7 253 7 567 l 0 571 l -37 23 c -60 38 -161 74 -252 91 c -99 19 -270 19 -361 1 z" stroke-linecap="round"/>
</g>
		<g transform="matrix(0.1333 0 0 -0.1333 -114.0212 100.0267)">
<path style="stroke: none; stroke-width: 1; stroke-dasharray: none; stroke-linecap: butt; stroke-dashoffset: 0; stroke-linejoin: miter; stroke-miterlimit: 4; is-custom-font: none; font-file-url: none; fill: rgb(255,255,255); fill-rule: nonzero; opacity: 1;" transform=" translate(-18345, -10049.5)" d="M 17710 10049 l 0 -1199 l 635 0 l 635 0 l 0 1199 l 0 1200 l -60 -25 c -341 -138 -795 -139 -1147 0 l -63 25 l 0 -1200 z" stroke-linecap="round"/>
</g>
</g>
</g>
</svg>