<?xml version="1.0" encoding="UTF-8" standalone="no" ?>
<!DOCTYPE svg PUBLIC "-//W3C//DTD SVG 1.1//EN" "http://www.w3.org/Graphics/SVG/1.1/DTD/svg11.dtd">
<svg xmlns="http://www.w3.org/2000/svg" xmlns:xlink="http://www.w3.org/1999/xlink" version="1.1" width="1080" height="1080" viewBox="0 0 1080 1080" xml:space="preserve">
<desc>Created with Fabric.js 5.2.4</desc>
<defs>
</defs>
<rect x="0" y="0" width="100%" height="100%" fill="transparent"></rect>
<g transform="matrix(1 0 0 1 540 540)" id="2531ff86-e606-4782-8366-c5bf4252726f"  >
<rect style="stroke: none; stroke-width: 1; stroke-dasharray: none; stroke-linecap: butt; stroke-dashoffset: 0; stroke-linejoin: miter; stroke-miterlimit: 4; fill: rgb(255,255,255); fill-rule: nonzero; opacity: 1; visibility: hidden;" vector-effect="non-scaling-stroke"  x="-540" y="-540" rx="0" ry="0" width="1080" height="1080" />
</g>
<g transform="matrix(1 0 0 1 540 540)" id="bf379b71-3364-41a7-b38d-1f66d85824ec"  >
</g>
<g transform="matrix(1.49 0 0 1.49 540 540)"  >
<g style="" vector-effect="non-scaling-stroke"   >
		<g transform="matrix(1 0 0 1 -281.09 -14.16)"  >
<path style="stroke: none; stroke-width: 1; stroke-dasharray: none; stroke-linecap: butt; stroke-dashoffset: 0; stroke-linejoin: miter; stroke-miterlimit: 4; fill: rgb(255,255,255); fill-rule: evenodd; opacity: 1;" vector-effect="non-scaling-stroke"  transform=" translate(-80.08, -65.59)" d="M 53.22 79.024 L 80.077 36.818 L 106.935 79.024 L 80.077 94.37 z" stroke-linecap="round" />
</g>
		<g transform="matrix(1 0 0 1 -281.09 24.71)"  >
<path style="stroke: none; stroke-width: 1; stroke-dasharray: none; stroke-linecap: butt; stroke-dashoffset: 0; stroke-linejoin: miter; stroke-miterlimit: 4; fill: rgb(255,255,255); fill-rule: evenodd; opacity: 1;" vector-effect="non-scaling-stroke"  transform=" translate(-80.08, -104.46)" d="M 53.22 86.232 L 80.077 101.58 L 106.935 86.232 L 80.077 122.682 z" stroke-linecap="round" />
</g>
		<g transform="matrix(1 0 0 1 -281.09 -60.5)"  >
<path style="stroke: none; stroke-width: 1; stroke-dasharray: none; stroke-linecap: butt; stroke-dashoffset: 0; stroke-linejoin: miter; stroke-miterlimit: 4; fill: rgb(255,255,255); fill-rule: evenodd; opacity: 1;" vector-effect="non-scaling-stroke"  transform=" translate(-80.07, -19.25)" d="M 92.291 19.697 C 88.11986431601088 21.64327661597824 84.05844927116661 23.816530926510588 80.12499999999994 26.20700000000006 C 76.16694305724756 23.789808005127604 72.07095514135855 21.606082483817236 67.85800000000003 19.66700000000001 C 71.79059862215247 17.008765647186898 75.85439815347155 14.549993378196422 80.03399999999993 12.300000000000011 C 84.23840621873943 14.56333288449265 88.3290094590904 17.031978733303642 92.29099999999995 19.696999999999978 z" stroke-linecap="round" />
</g>
		<g transform="matrix(1 0 0 1 -241.24 -39.85)"  >
<path style="stroke: none; stroke-width: 1; stroke-dasharray: none; stroke-linecap: butt; stroke-dashoffset: 0; stroke-linejoin: miter; stroke-miterlimit: 4; fill: rgb(255,255,255); fill-rule: evenodd; opacity: 1;" vector-effect="non-scaling-stroke"  transform=" translate(-119.93, -39.9)" d="M 149.64 10.187 C 134.896 -4.555 108.03 -2.794 80.033 12.3 C 84.23740621873942 14.56333288449265 88.3280094590904 17.031978733303642 92.28999999999995 19.696999999999978 C 103.128 14.685000000000002 113.452 11.998000000000003 122.197 11.998000000000003 C 130.016 11.998000000000003 136.577 14.142000000000003 141.125 18.690000000000005 C 150.775 28.340000000000003 149.628 47.01700000000001 140.129 67.536 C 142.7907709128696 71.49952232676964 145.25899632651326 75.58964816095256 147.52499999999995 79.79199999999994 C 162.61999999999998 51.797 164.38099999999997 24.929000000000002 149.63799999999998 10.186999999999998 z" stroke-linecap="round" />
</g>
		<g transform="matrix(1 0 0 1 -251.04 -30.03)"  >
<path style="stroke: none; stroke-width: 1; stroke-dasharray: none; stroke-linecap: butt; stroke-dashoffset: 0; stroke-linejoin: miter; stroke-miterlimit: 4; fill: rgb(255,255,255); fill-rule: evenodd; opacity: 1;" vector-effect="non-scaling-stroke"  transform=" translate(-110.13, -49.72)" d="M 92.291 19.697 C 88.11986431601088 21.64327661597824 84.05844927116661 23.816530926510588 80.12499999999994 26.20700000000006 C 101.86647040259223 39.656492019528116 120.17243759791407 57.990193453642796 133.58900000000006 79.75200000000007 C 135.987152404587 75.80060496626804 138.17032655233479 71.72267600772255 140.12899999999996 67.536 C 133.7744674861864 58.12820659338323 126.52614979893154 49.3561481245257 118.48499999999994 41.34200000000003 C 110.47754651252878 33.29281013585893 101.70437721765347 26.04351640088752 92.29000000000003 19.697000000000017 z" stroke-linecap="round" />
</g>
		<g transform="matrix(1 0 0 1 -220.61 0.02)"  >
<path style="stroke: none; stroke-width: 1; stroke-dasharray: none; stroke-linecap: butt; stroke-dashoffset: 0; stroke-linejoin: miter; stroke-miterlimit: 4; fill: rgb(255,255,255); fill-rule: evenodd; opacity: 1;" vector-effect="non-scaling-stroke"  transform=" translate(-140.56, -79.77)" d="M 147.526 79.792 C 145.26593016187314 83.98013212990557 142.80094363200578 88.05440176930719 140.14 91.99999999999997 C 138.18214572357354 87.80102082602086 135.99553037235833 83.71255087085551 133.58999999999997 79.75299999999991 C 135.98814902856208 75.80160303995176 138.17132307734744 71.72367426625725 140.12999999999994 67.53700000000005 C 142.79186338343482 71.50046342338966 145.26009154075297 75.59059380414836 147.5259999999999 79.79299999999996 z" stroke-linecap="round" />
</g>
		<g transform="matrix(1 0 0 1 -251.03 30.02)"  >
<path style="stroke: none; stroke-width: 1; stroke-dasharray: none; stroke-linecap: butt; stroke-dashoffset: 0; stroke-linejoin: miter; stroke-miterlimit: 4; fill: rgb(255,255,255); fill-rule: evenodd; opacity: 1;" vector-effect="non-scaling-stroke"  transform=" translate(-110.13, -109.77)" d="M 140.14 91.998 C 138.18212018379128 87.79935754109658 135.99550504249348 83.7112218128014 133.58999999999997 79.75200000000001 C 126.94091525354892 90.626064430765 119.0116232686039 100.66341062747519 109.97199999999997 109.649 C 101.00411813298058 118.69360371367057 90.98351607274421 126.62964390195977 80.12499999999996 133.28700000000003 C 84.0541441344498 135.68500251351654 88.11598521227135 137.85848479336352 92.29099999999991 139.79699999999997 C 101.70502197266833 133.45042072508193 110.47785350309628 126.20112934247089 118.48499999999994 118.152 C 126.53023581587071 110.15307444651519 133.78238034804303 101.39423869983158 140.14 91.99800000000003 z" stroke-linecap="round" />
</g>
		<g transform="matrix(1 0 0 1 -241.23 39.89)"  >
<path style="stroke: none; stroke-width: 1; stroke-dasharray: none; stroke-linecap: butt; stroke-dashoffset: 0; stroke-linejoin: miter; stroke-miterlimit: 4; fill: rgb(255,255,255); fill-rule: evenodd; opacity: 1;" vector-effect="non-scaling-stroke"  transform=" translate(-119.93, -119.64)" d="M 156.15 99.978 C 153.91737710383055 92.99278632538991 151.02988391435426 86.23409690948446 147.526 79.792 C 145.26582514783428 83.97942458471687 142.80084073725152 88.05302324645166 140.14000000000004 91.99799999999998 C 149.63000000000002 112.507 150.77700000000002 131.163 141.126 140.803 C 131.476 150.453 112.809 149.297 92.291 139.797 C 91.446 140.371 90.601 140.924 89.755 141.46699999999998 C 86.59281126412444 143.50477672579362 83.35020818068583 145.41497685498803 80.03500000000001 147.19299999999998 C 94.938 155.23299999999998 109.519 159.48999999999998 122.128 159.48999999999998 C 133.197 159.48999999999998 142.747 156.20999999999998 149.64 149.31699999999998 C 160.427 138.52899999999997 162.731 121.00999999999998 156.14999999999998 99.97799999999998 z" stroke-linecap="round" />
</g>
		<g transform="matrix(1 0 0 1 -281.09 60.49)"  >
<path style="stroke: none; stroke-width: 1; stroke-dasharray: none; stroke-linecap: butt; stroke-dashoffset: 0; stroke-linejoin: miter; stroke-miterlimit: 4; fill: rgb(255,255,255); fill-rule: evenodd; opacity: 1;" vector-effect="non-scaling-stroke"  transform=" translate(-80.07, -140.24)" d="M 92.291 139.797 C 91.446 140.371 90.601 140.924 89.755 141.46699999999998 C 86.59281126412444 143.50477672579362 83.35020818068583 145.41497685498803 80.03500000000001 147.19299999999998 C 75.85720066236428 144.93964815020846 71.7932494649042 142.4813197835754 67.85800000000002 139.827 C 72.07095108521159 137.88790934133976 76.1669385305173 135.70418407091506 80.12499999999997 133.287 C 84.055 135.685 88.116 137.858 92.291 139.797 z" stroke-linecap="round" />
</g>
		<g transform="matrix(1 0 0 1 -320.98 39.9)"  >
<path style="stroke: none; stroke-width: 1; stroke-dasharray: none; stroke-linecap: butt; stroke-dashoffset: 0; stroke-linejoin: miter; stroke-miterlimit: 4; fill: rgb(255,255,255); fill-rule: evenodd; opacity: 1;" vector-effect="non-scaling-stroke"  transform=" translate(-40.18, -119.65)" d="M 56.246 144.336 C 39.702 149.518 26.480000000000004 148.26000000000002 19.023000000000003 140.80300000000003 C 11.566000000000003 133.34700000000004 10.309000000000003 120.12400000000002 15.491000000000003 103.58100000000002 C 16.742497280890014 99.62176867458366 18.244871181083788 95.74625858922386 19.988999999999994 91.97800000000002 C 17.338409886263932 88.04071137249302 14.880193080090274 83.97727832443834 12.623000000000047 79.80200000000006 C 9.122700748598746 86.24092929073612 6.238874582983303 92.9963079877589 4.010000000000019 99.97799999999995 C -2.58 121.00999999999999 -0.266 138.529 10.51 149.317 C 17.273 156.06900000000002 26.671999999999997 159.5 37.922 159.5 C 45.3718532753292 159.38745402418337 52.76155044370487 158.14566661390242 59.839 155.817 C 66.82742463255184 153.58438325299616 73.58943367290071 150.6969022684463 80.035 147.19299999999998 C 75.8575407945346 144.93961943864022 71.79392393301782 142.48129143256824 67.85899999999998 139.827 C 64.08896851828719 141.57731031367493 60.210301538707235 143.0834168767929 56.24699999999999 144.336 z" stroke-linecap="round" />
</g>
		<g transform="matrix(1 0 0 1 -311.11 30.01)"  >
<path style="stroke: none; stroke-width: 1; stroke-dasharray: none; stroke-linecap: butt; stroke-dashoffset: 0; stroke-linejoin: miter; stroke-miterlimit: 4; fill: rgb(255,255,255); fill-rule: evenodd; opacity: 1;" vector-effect="non-scaling-stroke"  transform=" translate(-50.06, -109.76)" d="M 67.858 139.827 C 72.07095108521159 137.88790934133976 76.1669385305173 135.70418407091506 80.12499999999997 133.287 C 69.2304605615929 126.63767906630065 59.17582223313433 118.70127338933455 50.178000000000026 109.64900000000002 C 41.12576284388933 100.65114545147209 33.18936078082328 90.5965117014662 26.539999999999992 79.70199999999998 C 24.123473528409576 83.66524289984706 21.93653997062885 87.76399043500982 19.989999999999945 91.97800000000008 C 26.35804339955447 101.38103824180793 33.62015059867722 110.14647028376498 41.675 118.15199999999999 C 49.67639360371743 126.21197411071302 58.44566569734114 133.47141621548693 67.858 139.82700000000003 z" stroke-linecap="round" />
</g>
		<g transform="matrix(1 0 0 1 -341.58 0.01)"  >
<path style="stroke: none; stroke-width: 1; stroke-dasharray: none; stroke-linecap: butt; stroke-dashoffset: 0; stroke-linejoin: miter; stroke-miterlimit: 4; fill: rgb(255,255,255); fill-rule: evenodd; opacity: 1;" vector-effect="non-scaling-stroke"  transform=" translate(-19.58, -79.76)" d="M 26.54 79.702 C 24.123473528409576 83.66524289984706 21.93653997062885 87.76399043500982 19.989999999999945 91.97800000000008 C 17.339069690408532 88.04073203477256 14.880518949394114 83.97729863955179 12.62299999999998 79.80199999999998 C 14.887469838465913 75.59326367547058 17.35951321724735 71.49955717025489 20.029999999999994 67.53600000000004 C 21.968467279836545 71.71103871285881 24.141950991011683 75.77288246557109 26.540000000000003 79.70200000000003 z" stroke-linecap="round" />
</g>
		<g transform="matrix(1 0 0 1 -320.98 -39.85)"  >
<path style="stroke: none; stroke-width: 1; stroke-dasharray: none; stroke-linecap: butt; stroke-dashoffset: 0; stroke-linejoin: miter; stroke-miterlimit: 4; fill: rgb(255,255,255); fill-rule: evenodd; opacity: 1;" vector-effect="non-scaling-stroke"  transform=" translate(-40.19, -39.9)" d="M 19.023 18.69 C 26.48 11.234000000000002 39.703 9.976 56.245999999999995 15.168000000000001 C 60.20756548051711 16.42119283973398 64.085963406053 17.923520937310656 67.85799999999992 19.66599999999996 C 71.79062007050766 17.0081060906207 75.8544192279609 14.549667802693602 80.03400000000002 12.300000000000015 C 73.59050612466788 8.791817420457157 66.82808317083737 5.904159688538249 59.83800000000001 3.6760000000000055 C 38.817 -2.904 21.298 -0.6 10.51 10.187 C 3.617 17.08 0.336 26.63 0.336 37.7 C 0.336 50.309000000000005 4.593 64.9 12.623000000000001 79.803 C 14.887469838465917 75.59426367547059 17.359513217247354 71.5005571702549 20.029999999999998 67.53700000000005 C 10.53 47.017 9.373 28.34 19.023 18.69 z" stroke-linecap="round" />
</g>
		<g transform="matrix(1 0 0 1 -311.09 -30.07)"  >
<path style="stroke: none; stroke-width: 1; stroke-dasharray: none; stroke-linecap: butt; stroke-dashoffset: 0; stroke-linejoin: miter; stroke-miterlimit: 4; fill: rgb(255,255,255); fill-rule: evenodd; opacity: 1;" vector-effect="non-scaling-stroke"  transform=" translate(-50.08, -49.68)" d="M 67.858 19.666 C 49.03774191003665 32.46198905738636 32.80946443710634 48.70451733850155 20.030000000000044 67.53600000000003 C 21.96846727983655 71.71103871285882 24.141950991011676 75.77288246557106 26.539999999999992 79.702 C 39.992036510969 57.94073188023893 58.34114995430882 39.6224371400791 80.12499999999997 26.206999999999994 C 76.16694305724756 23.789808005127604 72.07095514135855 21.606082483817236 67.85800000000003 19.66700000000001 z" stroke-linecap="round" />
</g>
		<g transform="matrix(1 0 0 1 99.34 0.25)"  >
<path style="stroke: none; stroke-width: 1; stroke-dasharray: none; stroke-linecap: butt; stroke-dashoffset: 0; stroke-linejoin: miter; stroke-miterlimit: 4; fill: rgb(255,255,255); fill-rule: nonzero; opacity: 1;" vector-effect="non-scaling-stroke"  transform=" translate(-460.5, -80)" d="M 703.678 112.305 L 703.678 118.971 C 702.5161277735763 119.65377596584311 701.1905847401039 120.00806060973078 699.843 119.99600000000001 C 694.353 120.132 689.4879999999999 116.47300000000001 688.0799999999999 111.15100000000001 C 679.8799999999999 120.13700000000001 666.636 122.37800000000001 655.9499999999999 116.58900000000001 C 645.262 110.799 639.8729999999999 98.46300000000001 642.8749999999999 86.66100000000002 C 645.8769999999998 74.85900000000001 656.4999999999999 66.61700000000002 668.6469999999999 66.66700000000002 C 675.6435984126044 66.65044578341553 682.3593726092722 69.41792328908187 687.313 74.35900000000002 L 687.313 67.69200000000001 L 695.24 67.69200000000001 L 695.24 105.638 C 695.24 110.382 697.67 112.305 700.482 112.305 L 703.678 112.305 z M 687.313 93.33200000000001 C 687.313 82.995 678.956 74.61500000000001 668.6469999999999 74.61500000000001 C 658.337 74.61500000000001 649.9809999999999 82.995 649.9809999999999 93.33200000000001 C 649.9809999999999 103.66900000000001 658.3379999999999 112.048 668.6469999999999 112.048 C 678.9509999999999 112.036 687.3009999999999 103.664 687.313 93.332 z M 713.672 41.66700000000001 L 722 41.66700000000001 L 722 120 L 713.672 120 L 713.672 41.667 z M 630.392 92.98700000000001 C 630.397 103.879 623.945 113.70800000000001 614.0300000000001 117.91000000000001 C 604.1150000000001 122.111 592.6800000000001 119.86200000000001 585.0360000000001 112.20700000000001 L 585.0360000000001 118.96000000000001 L 577.0920000000001 118.96000000000001 L 577.0920000000001 40 L 585.0360000000001 40 L 585.0360000000001 73.76599999999999 C 592.681 66.11099999999999 604.1160000000001 63.86099999999999 614.0300000000001 68.06299999999999 C 623.945 72.26499999999999 630.397 82.09299999999999 630.392 92.987 z M 622.4480000000001 92.98700000000001 C 622.4480000000001 82.51500000000001 614.0730000000001 74.02600000000001 603.7420000000001 74.02600000000001 C 593.412 74.02600000000001 585.0360000000001 82.51500000000001 585.0360000000001 92.98600000000002 C 585.0360000000001 103.45800000000001 593.4110000000001 111.94700000000002 603.7420000000001 111.94700000000002 C 608.7215762675914 111.95766085447555 613.4956536355646 109.96260474033953 616.9870000000001 106.41200000000002 C 620.506672860064 102.83237175429821 622.4694904094603 98.00709696934216 622.4480000000001 92.98700000000002 z M 508.8030000000001 93.33300000000001 C 508.8030000000001 78.60600000000001 520.7330000000001 66.66700000000002 535.4530000000001 66.66700000000002 C 550.1700000000001 66.66700000000002 562.1020000000001 78.60600000000002 562.1020000000001 93.33300000000001 C 562.1020000000001 108.061 550.171 120.00000000000001 535.4520000000001 120.00000000000001 C 528.3816132839884 120.0052139406278 521.5996101219214 117.19742865273545 516.6020000000001 112.19600000000001 C 511.6021159393339 107.19236838451737 508.79612701199835 100.40655182857762 508.8020000000001 93.33300000000003 z M 554.1580000000001 93.33300000000001 C 554.1580000000001 82.99600000000001 545.7830000000001 74.61600000000001 535.4520000000001 74.61600000000001 C 525.1220000000001 74.61600000000001 516.7460000000001 82.99600000000001 516.7460000000001 93.33400000000002 C 516.7460000000001 103.67100000000002 525.1210000000001 112.05100000000002 535.4520000000001 112.05100000000002 C 545.7780000000001 112.03900000000002 554.1460000000001 103.66600000000001 554.1580000000001 93.33300000000001 z M 468.82800000000015 77.406 L 468.82800000000015 79.72800000000001 C 468.96200000000016 99.83800000000001 454.46300000000014 116.92200000000001 434.96300000000014 119.632 C 415.46300000000014 122.342 397.0260000000001 109.834 391.9010000000001 90.417 C 386.7760000000001 71.001 396.55700000000013 50.715 414.7450000000001 43.037 C 432.9330000000001 35.357 453.8730000000001 42.674 463.65300000000013 60.125 L 456.71200000000016 64.123 C 449.3220000000002 50.783 433.61600000000016 44.80500000000001 419.48700000000014 49.95400000000001 C 405.35900000000015 55.104000000000006 396.8990000000001 69.89000000000001 399.43900000000014 84.99700000000001 C 401.97900000000016 100.10500000000002 414.7810000000001 111.15900000000002 429.78200000000015 111.19500000000002 C 444.78200000000015 111.23100000000002 457.63600000000014 100.24000000000002 460.24600000000015 85.14500000000002 L 429.83 85.14500000000002 L 429.83 77.40600000000002 L 468.82599999999996 77.40600000000002 z M 485.48400000000015 41.666000000000004 L 493.8120000000001 41.666000000000004 L 493.8120000000001 120 L 485.48400000000015 120 L 485.48400000000015 41.667 z M 377.22000000000014 41.666000000000004 L 377.22000000000014 120 L 360.4350000000001 120 L 360.4350000000001 88.406 L 329.1730000000001 88.406 L 329.1730000000001 120 L 312.26100000000014 120 L 312.26100000000014 41.667 L 329.1730000000001 41.667 L 329.1730000000001 73.13 L 360.4350000000001 73.13 L 360.4350000000001 41.667 L 377.22000000000014 41.667 z M 305.59900000000016 56.94200000000001 L 286.47500000000014 56.94200000000001 L 286.47500000000014 120 L 269.88500000000016 120 L 269.88500000000016 56.942 L 250.63400000000016 56.942 L 250.63400000000016 41.667 L 305.59900000000016 41.667 L 305.59900000000016 56.942 z M 216.05300000000017 56.812000000000005 L 216.05300000000017 73.262 L 241.37300000000016 73.262 L 241.37300000000016 88.406 L 216.05300000000017 88.406 L 216.05300000000017 104.85600000000001 L 245.63700000000017 104.85600000000001 L 245.63700000000017 120 L 199 120 L 199 41.667 L 245.637 41.667 L 245.637 56.81 L 216.053 56.81 z" stroke-linecap="round" />
</g>
</g>
</g>
</svg>