<svg width="4512" height="1001" fill="none" xmlns="http://www.w3.org/2000/svg"><path fill-rule="evenodd" clip-rule="evenodd" d="M331.038 495.793l167.876-264.58 167.882 264.58-167.882 96.201-167.876-96.201z" fill="#364B99"/><path fill-rule="evenodd" clip-rule="evenodd" d="M331.038 540.98l167.876 96.212 167.882-96.212-167.882 228.495L331.038 540.98z" fill="#364B99"/><path fill-rule="evenodd" clip-rule="evenodd" d="M575.27 123.884a787.248 787.248 0 00-76.047 40.81 742.74 742.74 0 00-76.678-40.997 883.865 883.865 0 0176.108-46.183 910.604 910.604 0 0176.617 46.37z" fill="#5F9A34"/><path fill-rule="evenodd" clip-rule="evenodd" d="M933.733 64.274C841.572-28.14 673.639-17.1 498.636 77.52a910.508 910.508 0 0176.616 46.37c67.744-31.419 132.279-48.263 186.941-48.263 48.875 0 89.886 13.44 118.313 41.95 60.323 60.494 53.152 177.575-6.225 306.204a927.898 927.898 0 0146.231 76.832c94.358-175.494 105.368-343.924 13.208-436.339h.013z" fill="#FFC750"/><path fill-rule="evenodd" clip-rule="evenodd" d="M575.258 123.887a787.13 787.13 0 00-76.046 40.81c135.901 84.312 250.328 199.241 334.192 335.66a805.46 805.46 0 0040.878-76.578 1104.504 1104.504 0 00-135.291-164.204 1092.582 1092.582 0 00-163.738-135.688h.005z" fill="#FFC750"/><path fill-rule="evenodd" clip-rule="evenodd" d="M920.515 500.612a908.642 908.642 0 01-46.169 76.53 795.024 795.024 0 00-40.943-76.774 806.096 806.096 0 0040.881-76.58 927.349 927.349 0 0146.231 76.829v-.005z" fill="#FF512F"/><path fill-rule="evenodd" clip-rule="evenodd" d="M874.354 577.132a795.213 795.213 0 00-40.945-76.771 998.75 998.75 0 01-147.629 187.42 995.985 995.985 0 01-186.568 148.181 761.296 761.296 0 0076.046 40.81 1092.396 1092.396 0 00163.733-135.687 1101.41 1101.41 0 00135.363-163.953z" fill="#FF6895"/><path fill-rule="evenodd" clip-rule="evenodd" d="M974.437 627.154a731.219 731.219 0 00-53.904-126.542 909.978 909.978 0 01-46.171 76.517c59.321 128.565 66.491 245.515 6.164 305.946-60.32 60.495-177.001 53.25-305.257-6.306a729.457 729.457 0 01-15.85 10.47 879.865 879.865 0 01-60.759 35.894c93.157 50.403 184.299 77.087 263.113 77.087 69.192 0 128.888-20.561 171.971-63.769 67.426-67.631 81.826-177.453 40.693-309.297z" fill="#FF6895"/><path fill-rule="evenodd" clip-rule="evenodd" d="M575.27 876.765a726.886 726.886 0 01-15.851 10.468 878.895 878.895 0 01-60.761 35.896 900.55 900.55 0 01-76.113-46.177 743.125 743.125 0 0076.678-40.997 762.656 762.656 0 0076.047 40.81z" fill="#552990"/><path fill-rule="evenodd" clip-rule="evenodd" d="M349.956 905.223c-103.413 32.487-186.062 24.599-232.674-22.147-46.612-46.739-54.47-129.633-22.078-233.335a614.343 614.343 0 0128.116-72.74 921.434 921.434 0 01-46.043-76.326 730.178 730.178 0 00-53.838 126.477C-17.754 758.999-3.289 868.821 64.07 936.449c42.274 42.328 101.025 63.831 171.347 63.831a459.208 459.208 0 00136.996-23.085 727.415 727.415 0 00126.243-54.061 900.022 900.022 0 01-76.11-46.177 604.652 604.652 0 01-72.586 28.266h-.003z" fill="#5666F6"/><path fill-rule="evenodd" clip-rule="evenodd" d="M422.54 876.959a743.494 743.494 0 0076.678-40.995 994.867 994.867 0 01-187.192-148.183 996.693 996.693 0 01-147.755-187.733 761.098 761.098 0 00-40.943 76.958 1104.038 1104.038 0 00135.549 164.079A1091.022 1091.022 0 00422.54 876.959z" fill="#5666F6"/><path fill-rule="evenodd" clip-rule="evenodd" d="M164.265 500.04a760.904 760.904 0 00-40.942 76.959 921.767 921.767 0 01-46.05-76.33 906.02 906.02 0 0146.3-76.894 764.583 764.583 0 0040.692 76.265z" fill="#204FA0"/><path fill-rule="evenodd" clip-rule="evenodd" d="M117.29 117.576c46.611-46.74 129.265-54.626 232.673-22.079a615.588 615.588 0 0172.584 28.197 884.48 884.48 0 0176.108-46.176 722.396 722.396 0 00-126.239-54.062C241.017-17.792 131.51-3.349 64.076 64.272 20.99 107.483.482 167.35.482 236.745c0 79.044 26.61 170.511 76.804 263.935a905.616 905.616 0 0146.299-76.892C64.202 295.152 56.97 178.069 117.29 117.576z" fill="#5FC5A6"/><path fill-rule="evenodd" clip-rule="evenodd" d="M422.54 123.698c-117.641 80.216-219.08 182.037-298.962 300.085a764.101 764.101 0 0040.693 76.268C248.356 363.634 363.052 248.8 499.218 164.702a743.133 743.133 0 00-76.678-40.998v-.006z" fill="#5FC5A6"/><path d="M4396.89 704.424v41.788a46.252 46.252 0 01-23.95 6.424c-34.33.855-64.75-22.083-73.53-55.445-51.26 56.331-134.06 70.378-200.83 34.089-66.83-36.3-100.51-113.63-81.74-187.613 18.76-73.985 85.15-125.651 161.09-125.337 21.67-.052 43.11 4.18 63.13 12.455 20.02 8.272 38.2 20.427 53.55 35.762v-41.793h49.55V662.63c0 29.739 15.2 41.794 32.76 41.794h19.97zm-102.28-118.937c0-64.801-52.24-117.332-116.68-117.332s-116.68 52.531-116.68 117.332c0 64.798 52.24 117.327 116.68 117.327 64.41-.077 116.61-52.559 116.68-117.327zm164.77-323.88h52.06v491.055h-52.06V261.607zm-520.56 321.715c.02 68.28-40.31 129.895-102.3 156.238-61.98 26.335-133.45 12.237-181.23-35.753v42.336h-49.65V251.159h49.65V462.83c47.81-47.987 119.25-62.09 181.23-35.75 61.99 26.342 102.32 87.949 102.3 156.242zm-49.65 0c0-65.646-52.35-118.86-116.94-118.86s-116.94 53.214-116.94 118.855c0 65.646 52.35 118.863 116.94 118.863 15.41.033 30.65-3.02 44.88-8.976a115.856 115.856 0 0037.92-25.722 119.643 119.643 0 0034.14-84.16zm-710.38 2.17c0-92.32 74.55-167.162 166.59-167.162 91.98 0 166.56 74.842 166.56 167.162 0 92.327-74.58 167.17-166.59 167.17a165.852 165.852 0 01-63.74-12.691c-20.26-8.393-38.61-20.707-54.09-36.23a167.388 167.388 0 01-36.1-54.259 167.207 167.207 0 01-12.63-63.99zm283.5 0c0-64.801-52.35-117.335-116.94-117.335-64.56 0-116.91 52.534-116.91 117.343 0 64.798 52.35 117.332 116.91 117.332 64.54-.077 116.86-52.565 116.94-117.34zm-533.37-99.842v14.555c.82 126.064-89.8 233.162-211.69 250.149-121.89 16.989-237.13-61.42-269.16-183.143-32.06-121.712 29.1-248.883 142.8-297.013 113.68-48.146 244.55-2.275 305.68 107.118l-43.36 25.064c-46.21-83.623-144.38-121.098-232.7-88.822-88.3 32.286-141.18 124.975-125.31 219.678 15.87 94.707 95.89 164.001 189.65 164.23 93.78.223 174.13-68.676 190.44-163.304h-190.13V485.65h243.78zm104.1-224.046h52.07v491.058h-52.07V261.604zm-676.73 0v491.058h-104.92V554.607h-195.41v198.055h-105.71V261.607h105.71v197.238h195.41V261.607h104.92v-.003zm-447.69 95.76h-119.53v395.298h-103.7V357.364h-120.34v-95.757h343.57v95.757zm-559.73-.814v103.122h158.27v94.935h-158.27v103.119h184.93v94.936h-291.52V261.607h291.52v94.931h-184.93v.012z" fill="#202A4C"/></svg>