<svg xmlns="http://www.w3.org/2000/svg" xmlns:xlink="http://www.w3.org/1999/xlink" width="256px" height="32px" viewBox="0 0 256 32" version="1.1">
 <!-- Generator: Sketch 51.2 (57519) - http://www.bohemiancoding.com/sketch -->
 <title>
  FAIRE
 </title>
 <desc fill="#ffffff">
  Created with Sketch.
 </desc>
 <defs fill="#ffffff">
 </defs>
 <g id="Rebrand-Announcement" stroke="none" stroke-width="1" fill="none" fill-rule="evenodd">
  <g id="FAIRE" fill="#ffffff">
   <path d="M27.7020913,7.9346049 L27.2644595,8.15258856 C26.06826,6.67029232 24.9304288,5.40599978 23.8509317,4.35967302 C22.7714346,3.31334627 21.7211288,2.54314507 20.6999829,2.04904632 C20.2039977,1.81652926 19.3068616,1.62034594 18.0085475,1.46049046 C16.7102334,1.30063499 15.2004189,1.22070845 13.4790586,1.22070845 C13.1873027,1.22070845 12.8517883,1.2279745 12.4725056,1.24250681 C12.0932228,1.25703913 11.7285333,1.27157123 11.3784261,1.28610354 C11.028319,1.30063586 10.7000984,1.31516796 10.3937546,1.32970027 C10.0874109,1.34423259 9.86130337,1.35149864 9.71542538,1.35149864 C9.68624978,1.52588643 9.64978083,1.70027161 9.60601744,1.8746594 C9.56225404,2.04904719 9.52578509,2.25249657 9.49660949,2.48501362 C9.4674339,2.71753068 9.43825874,3.01543869 9.40908314,3.37874659 C9.37990754,3.7420545 9.35073238,4.18528349 9.32155678,4.70844687 C9.29238119,5.72570899 9.27049982,6.8374145 9.25591202,8.04359673 C9.24132422,9.24977896 9.23403043,10.3905487 9.23403043,11.4659401 L9.23403043,15.6076294 L10.0217676,15.6076294 C10.4885772,15.6076294 11.0064363,15.5930973 11.5753604,15.5640327 C12.1442846,15.5349681 12.7350816,15.4986378 13.3477691,15.4550409 C13.9604567,15.4114439 14.4710219,15.3460495 14.8794803,15.2588556 C15.9298018,15.0263385 16.7612939,14.7211645 17.3739814,14.3433243 C17.986669,13.965484 18.4680591,13.514989 18.8181663,12.9918256 C19.1682734,12.4686622 19.4162623,11.8946444 19.5621403,11.2697548 C19.7080183,10.6448652 19.8393065,9.96912262 19.9560089,9.24250681 L20.481167,9.24250681 L20.481167,23.280654 L19.9560089,23.280654 C19.7226041,22.3505857 19.3870898,21.3696691 18.9494558,20.3378747 C18.5118218,19.3060802 17.986669,18.5140809 17.3739814,17.9618529 C16.8196451,17.4677541 16.2288481,17.0971856 15.6015727,16.8501362 C14.9742974,16.6030869 14.2376246,16.4504998 13.3915323,16.3923706 C12.9538983,16.3633059 12.5746212,16.3415078 12.2536897,16.3269755 C11.9327581,16.3124432 11.6264189,16.3051771 11.3346629,16.3051771 L9.23403043,16.3051771 L9.23403043,21.7111717 C9.23403043,22.5249814 9.24132422,23.2733844 9.25591202,23.9564033 C9.27049982,24.6394221 9.27779361,25.2279721 9.27779361,25.7220708 C9.3069692,26.6521391 9.35802573,27.531331 9.43096473,28.359673 C9.50390372,29.188015 9.67166089,29.8056292 9.93424127,30.2125341 C10.1968216,30.6194389 10.6417428,30.931879 11.2690182,31.1498638 C11.8962935,31.3678485 12.8080173,31.5059034 14.0042168,31.5640327 L14.0042168,32 L0,32 L0,31.5640327 C0.729389937,31.4477742 1.4077124,31.2588569 2.03498775,30.9972752 C2.66226309,30.7356935 3.18012218,30.3723911 3.58858055,29.9073569 C3.73445853,29.7329692 3.85115917,29.4786574 3.93868597,29.1444142 C4.02621276,28.8101709 4.10644445,28.4250703 4.17938344,27.9891008 C4.25232243,27.5531313 4.30337896,27.0953702 4.33255456,26.6158038 C4.36173016,26.1362374 4.37631774,25.6639442 4.37631774,25.1989101 C4.37631774,24.7920052 4.38361153,24.2397855 4.39819933,23.5422343 C4.41278713,22.8446832 4.42737471,22.081748 4.4419625,21.253406 C4.4565503,20.425064 4.46384409,19.5749362 4.46384409,18.7029973 L4.46384409,7.67302452 C4.46384409,7.14986114 4.4565503,6.61217351 4.4419625,6.0599455 C4.42737471,5.50771749 4.39819955,4.98456196 4.35443615,4.49046322 C4.31067275,3.99636447 4.23773485,3.55313548 4.13562026,3.16076294 C4.03350567,2.76839041 3.89492366,2.4850145 3.71987008,2.3106267 C3.28223612,1.84559259 2.81543356,1.54768458 2.3194484,1.41689373 C1.82346324,1.28610289 1.18160973,1.16258005 0.393868597,1.04632153 L0.393868597,0.610354223 L24.7261952,0.610354223 L27.7020913,7.9346049 Z M75.5206564,32 L75.5206564,31.5640327 C75.6081832,31.5640327 75.8197031,31.5349685 76.1552225,31.4768392 C76.4907419,31.41871 76.8408438,31.3169853 77.2055388,31.1716621 C77.5702337,31.026339 77.8911605,30.8228896 78.1683287,30.5613079 C78.4454969,30.2997262 78.5840789,29.965488 78.5840789,29.5585831 C78.5840789,29.2970014 78.5038472,28.8683045 78.3433814,28.2724796 C78.1829156,27.6766546 77.9568081,26.9500497 77.6650521,26.0926431 C77.3732962,25.2352364 77.0377818,24.283384 76.6584991,23.2370572 C76.2792163,22.1907305 75.8707641,21.1008231 75.4331301,19.9673025 L63.7921249,19.9673025 C63.3544909,21.0717585 62.9314511,22.1253356 62.5229928,23.1280654 C62.1145344,24.1307952 61.7060822,25.140776 61.2976238,26.1580381 C60.6849362,27.7275283 60.3785971,28.8319677 60.3785971,29.4713896 C60.3785971,29.8492299 60.4952977,30.16167 60.7287025,30.4087193 C60.9621073,30.6557687 61.2611527,30.8592181 61.6258476,31.0190736 C61.9905426,31.178929 62.3844073,31.2951858 62.8074534,31.3678474 C63.2304996,31.440509 63.631658,31.5059034 64.0109408,31.5640327 L64.0109408,32 L54.689384,32 L54.689384,31.520436 C55.4479495,31.4332421 56.0970969,31.2297927 56.6368454,30.9100817 C57.176594,30.5903708 57.4902269,30.3723893 57.5777537,30.2561308 C57.7819829,30.0526784 58.1174972,29.5731191 58.5843068,28.8174387 C59.0511164,28.0617583 59.620032,26.9427867 60.2910707,25.4604905 C60.9037583,24.0944528 61.5893745,22.5395183 62.3479401,20.7956403 C63.1065056,19.0517624 63.8869411,17.2570483 64.68927,15.4114441 C65.491599,13.56584 66.2866221,11.7057314 67.0743632,9.83106267 C67.8621043,7.9563939 68.6060709,6.20527608 69.3062853,4.57765668 L68.8686535,3.61852861 C69.3938142,3.38601155 69.8679106,3.10990169 70.2909567,2.79019074 C70.7140029,2.47047978 71.0859862,2.13624153 71.4069178,1.78746594 C71.7278493,1.43869035 71.9977196,1.1044521 72.2165366,0.784741144 C72.4353535,0.465030191 72.6031107,0.203452425 72.7198131,0 L73.0699185,0 C73.974362,2.41236447 74.8350293,4.70116992 75.651946,6.86648501 C76.4688627,9.03180011 77.2492982,11.1171562 77.993276,13.1226158 C78.7372537,15.1280754 79.4593389,17.0681105 80.1595533,18.9427793 C80.8597676,20.8174481 81.5599714,22.6702906 82.2601858,24.5013624 C82.5811173,25.402366 82.8801627,26.150769 83.1573309,26.746594 C83.4344991,27.342419 83.748132,28.0181615 84.0982392,28.773842 C84.1565904,28.8901005 84.2878786,29.0935499 84.4921078,29.3841962 C84.696337,29.6748425 84.9662072,29.9727505 85.3017266,30.2779292 C85.637246,30.5831078 86.052992,30.8519516 86.5489771,31.0844687 C87.0449623,31.3169857 87.6284655,31.4477746 88.2995042,31.4768392 L88.2995042,32 L75.5206564,32 Z M69.7876802,5.58038147 C69.6126266,5.95822169 69.357344,6.55403771 69.0218246,7.36784741 C68.6863052,8.18165711 68.2705592,9.16983978 67.774574,10.3324251 C67.2785889,11.4950104 66.7315546,12.8101652 66.1334549,14.2779292 C65.5353551,15.7456931 64.8862078,17.3369578 64.1859935,19.0517711 L75.0830247,19.0517711 C74.5870395,17.7438627 74.083768,16.4359738 73.5731951,15.1280654 C73.0626221,13.8201569 72.5666444,12.5631305 72.085247,11.3569482 C71.6038497,10.150766 71.1662223,9.04632654 70.7723517,8.04359673 C70.3784811,7.04086692 70.0502606,6.21980338 69.7876802,5.58038147 Z M131.347883,32 L118.08764,32 L118.08764,31.5640327 C118.81703,31.4477742 119.495353,31.2588569 120.122628,30.9972752 C120.749903,30.7356935 121.28235,30.357859 121.719984,29.8637602 C121.865862,29.6893724 121.975269,29.4423268 122.048208,29.1226158 C122.121147,28.8029049 122.179497,28.4250703 122.223261,27.9891008 C122.267024,27.5531313 122.296199,27.0953702 122.310787,26.6158038 C122.325375,26.1362374 122.332669,25.6639442 122.332669,25.1989101 C122.332669,24.7920052 122.339962,24.2397855 122.35455,23.5422343 C122.369138,22.8446832 122.383725,22.081748 122.398313,21.253406 C122.412901,20.425064 122.420195,19.5749362 122.420195,18.7029973 L122.420195,6.10354223 C122.420195,5.58037886 122.398314,5.09355357 122.35455,4.64305177 C122.310787,4.19254997 122.245143,3.78565123 122.157616,3.42234332 C122.070089,3.05903542 121.938801,2.77565951 121.763747,2.57220708 C121.355289,2.07810834 120.852017,1.72207193 120.253918,1.50408719 C119.655818,1.28610245 118.977495,1.13351542 118.21893,1.04632153 L118.21893,0.610354223 L131.30412,0.610354223 L131.30412,1.04632153 C130.691432,1.13351542 130.034991,1.2933685 129.334777,1.52588556 C128.634563,1.75840262 128.094822,2.22342975 127.715539,2.92098093 C127.452959,3.41507967 127.314377,4.03995989 127.299789,4.79564033 C127.285201,5.55132076 127.26332,6.26339357 127.234144,6.93188011 C127.234144,7.65849591 127.226851,8.37783477 127.212263,9.08991826 C127.197675,9.80200174 127.190381,10.5213406 127.190381,11.2479564 L127.190381,25.852861 C127.190381,26.6957354 127.204969,27.5095329 127.234144,28.2942779 C127.26332,29.079023 127.394608,29.6312427 127.628013,29.9509537 C127.97812,30.4450524 128.532448,30.822887 129.291014,31.0844687 C130.049579,31.3460504 130.735196,31.5059034 131.347883,31.5640327 L131.347883,32 Z M197.590746,32 L188.619295,32 C188.356714,31.7384183 188.167076,31.542235 188.050373,31.4114441 C187.933671,31.2806533 187.802383,31.1280663 187.656505,30.9536785 C187.510627,30.7792907 187.328282,30.524979 187.109465,30.1907357 C186.890648,29.8564924 186.54784,29.355135 186.08103,28.6866485 C185.526694,27.8728388 185.03801,27.1389678 184.614964,26.4850136 C184.191918,25.8310594 183.761584,25.184381 183.32395,24.5449591 C182.886316,23.9055372 182.41222,23.2588589 181.901647,22.6049046 C181.391074,21.9509504 180.785689,21.2170795 180.085475,20.4032698 C179.501963,19.7347832 178.867403,19.109903 178.181777,18.5286104 C177.49615,17.9473177 176.774065,17.5840153 176.015499,17.4386921 C175.461163,17.3224336 175.038123,17.2643052 174.746367,17.2643052 C174.483787,17.2643052 174.148273,17.2497731 173.739814,17.2207084 L173.739814,22.147139 C173.739814,23.5422413 173.754402,24.7193413 173.783577,25.6784741 C173.812753,26.6085423 173.841928,27.4078077 173.871104,28.0762943 C173.900279,28.7447808 174.060743,29.2970005 174.352499,29.73297 C174.585903,30.1108102 175.038118,30.4959108 175.709157,30.8882834 C176.380196,31.2806559 177.313801,31.5059034 178.510001,31.5640327 L178.510001,32 L164.505784,32 L164.505784,31.5640327 C165.235174,31.4477742 165.935378,31.273389 166.606416,31.0408719 C167.277455,30.8083549 167.802608,30.4595845 168.181891,29.9945504 C168.327769,29.8201626 168.444469,29.5585849 168.531996,29.2098093 C168.619523,28.8610337 168.685167,28.468667 168.72893,28.0326975 C168.772694,27.5967281 168.809163,27.1317009 168.838338,26.6376022 C168.867514,26.1435034 168.882102,25.6639442 168.882102,25.1989101 C168.882102,24.7920052 168.889395,24.2397855 168.903983,23.5422343 C168.918571,22.8446832 168.933159,22.081748 168.947746,21.253406 C168.962334,20.425064 168.969628,19.5749362 168.969628,18.7029973 L168.969628,7.67302452 C168.969628,7.14986114 168.962334,6.61943956 168.947746,6.08174387 C168.933159,5.54404817 168.903983,5.03542474 168.86022,4.55585831 C168.816457,4.07629188 168.743519,3.64032894 168.641404,3.2479564 C168.539289,2.85558387 168.400707,2.57220796 168.225654,2.39782016 C167.78802,1.93278605 167.299336,1.62034594 166.759587,1.46049046 C166.219839,1.30063499 165.556104,1.16258005 164.768363,1.04632153 L164.768363,0.610354223 L166.562653,0.610354223 C167.554623,0.610354223 168.677867,0.603088174 169.932418,0.588555858 C171.186968,0.574023542 172.4415,0.566757493 173.696051,0.566757493 L176.759473,0.566757493 C178.714239,0.566757493 180.450161,0.624885886 181.967292,0.741144414 C183.484423,0.857402943 184.870243,1.24976959 186.124793,1.91825613 C187.40852,2.58674267 188.444238,3.4949988 189.231979,4.64305177 C190.01972,5.79110474 190.413585,7.2370485 190.413585,8.98092643 C190.413585,10.0563178 190.216652,11.0227023 189.822782,11.880109 C189.428911,12.7375156 188.903758,13.4931847 188.247308,14.147139 C187.590857,14.8010932 186.825009,15.360579 185.949741,15.8256131 C185.074473,16.2906472 184.155455,16.6830138 183.192661,17.0027248 L183.192661,17.133515 C183.688646,17.3950967 184.170036,17.7729312 184.636845,18.26703 C185.103655,18.7611287 185.55587,19.3133484 185.993504,19.9237057 C186.752069,21.0281617 187.576268,22.2197938 188.466123,23.4986376 C189.355979,24.7774814 190.151002,25.9109851 190.851217,26.8991826 C191.930714,28.4105434 192.981019,29.5149829 194.002165,30.2125341 C195.023311,30.9100852 196.219493,31.3605803 197.590746,31.5640327 L197.590746,32 Z M185.380819,8.71934605 C185.380819,7.26611444 185.01613,5.97275771 184.28674,4.83923706 C183.55735,3.7057164 182.492457,2.80472632 181.092028,2.13623978 C180.391814,1.81652883 179.655141,1.58401526 178.881988,1.4386921 C178.108834,1.29336894 177.299224,1.22070845 176.453131,1.22070845 C175.840444,1.22070845 175.344466,1.23524054 174.965183,1.26430518 C174.5859,1.29336981 174.294149,1.32243401 174.08992,1.35149864 C174.060744,1.52588643 174.031569,1.67847346 174.002393,1.80926431 C173.973218,1.94005515 173.951336,2.10717428 173.936749,2.3106267 C173.922161,2.51407913 173.907573,2.79745504 173.892985,3.16076294 C173.878398,3.52407084 173.856516,4.03996033 173.827341,4.70844687 C173.798165,5.72570899 173.776284,6.87374474 173.761696,8.15258856 C173.747108,9.43143237 173.739814,10.6666607 173.739814,11.8583106 L173.739814,16.653951 C174.936014,16.653951 176.051964,16.6030886 177.087697,16.5013624 C178.123431,16.3996362 179.12268,16.1889208 180.085475,15.8692098 C181.019094,15.5785635 181.821411,15.1861968 182.49245,14.6920981 C183.163488,14.1979993 183.710523,13.6385136 184.133569,13.013624 C184.556615,12.3887344 184.870248,11.7129918 185.074477,10.986376 C185.278706,10.2597602 185.380819,9.50409112 185.380819,8.71934605 Z M256,23.6730245 L253.811841,32 L227.028777,32 L227.028777,31.5640327 C227.758167,31.4477742 228.436489,31.2588569 229.063764,30.9972752 C229.69104,30.7356935 230.208899,30.3723911 230.617357,29.9073569 C230.763235,29.7329692 230.879936,29.4786574 230.967463,29.1444142 C231.054989,28.8101709 231.135221,28.4250703 231.20816,27.9891008 C231.281099,27.5531313 231.332156,27.0953702 231.361331,26.6158038 C231.390507,26.1362374 231.405094,25.6639442 231.405094,25.1989101 C231.405094,24.7920052 231.412388,24.2397855 231.426976,23.5422343 C231.441564,22.8446832 231.456151,22.081748 231.470739,21.253406 C231.485327,20.425064 231.492621,19.5749362 231.492621,18.7029973 C231.492621,17.8019937 231.492621,16.959132 231.492621,16.1743869 L231.492621,7.67302452 C231.492621,7.14986114 231.485327,6.61217351 231.470739,6.0599455 C231.456151,5.50771749 231.426976,4.98456196 231.383213,4.49046322 C231.339449,3.99636447 231.266511,3.55313548 231.164397,3.16076294 C231.062282,2.76839041 230.9237,2.4850145 230.748647,2.3106267 C230.311013,1.84559259 229.84421,1.54768458 229.348225,1.41689373 C228.85224,1.28610289 228.210386,1.16258005 227.422645,1.04632153 L227.422645,0.610354223 L251.579919,0.610354223 L254.555815,7.80381471 L254.118183,8.02179837 C251.75496,5.08627052 249.537648,3.10990518 247.46618,2.09264305 C246.970195,1.86012599 246.051178,1.65667662 244.7091,1.48228883 C243.367023,1.30790104 241.733214,1.22070845 239.807624,1.22070845 C239.194937,1.22070845 238.560377,1.24250659 237.903926,1.28610354 C237.247475,1.32970049 236.773379,1.38056283 236.481623,1.4386921 C236.423272,1.90372621 236.372215,2.86284469 236.328452,4.31607629 C236.284688,5.7693079 236.262807,7.45503128 236.262807,9.373297 C236.262807,10.477753 236.262807,11.4078073 236.262807,12.1634877 C236.262807,12.9191682 236.270101,13.5367823 236.284689,14.0163488 C236.299276,14.4959152 236.30657,14.8664837 236.30657,15.1280654 C236.30657,15.3605825 236.30657,15.5204355 236.30657,15.6076294 C236.452448,15.6076294 236.7442,15.6076294 237.181834,15.6076294 C237.619468,15.6076294 238.122739,15.5930973 238.691663,15.5640327 C239.260587,15.5349681 239.829503,15.4986378 240.398427,15.4550409 C240.967351,15.4114439 241.441448,15.3460495 241.820731,15.2588556 C242.695998,15.0554032 243.425377,14.7792933 244.008889,14.4305177 C244.592401,14.0817421 245.066498,13.6603113 245.431193,13.1662125 C245.795888,12.6721138 246.087639,12.0980959 246.306456,11.4441417 C246.525273,10.7901875 246.722206,10.0563165 246.897259,9.24250681 L247.422417,9.24250681 L247.422417,22.9754768 L246.897259,22.9754768 C246.663854,22.0454086 246.306459,21.0862901 245.825061,20.0980926 C245.343664,19.1098951 244.840392,18.3687581 244.315232,17.8746594 C243.848422,17.4677546 243.2868,17.1335163 242.630349,16.8719346 C241.973898,16.6103529 241.20805,16.4504998 240.332782,16.3923706 C239.895149,16.3633059 239.530459,16.3415078 239.238703,16.3269755 C238.946947,16.3124432 238.655195,16.3051771 238.36344,16.3051771 C238.100859,16.3051771 237.809108,16.3051771 237.488176,16.3051771 C237.19642,16.3051771 236.817143,16.3051771 236.350333,16.3051771 C236.291982,16.712082 236.262807,17.307898 236.262807,18.0926431 C236.262807,18.8773881 236.262807,19.6911856 236.262807,20.5340599 C236.262807,20.9119002 236.262807,21.3478631 236.262807,21.8419619 C236.262807,22.3360606 236.262807,22.8301519 236.262807,23.3242507 C236.262807,23.7892848 236.270101,24.2325138 236.284689,24.653951 C236.299276,25.0753881 236.30657,25.4314245 236.30657,25.7220708 C236.335746,26.6521391 236.386802,27.531331 236.459741,28.359673 C236.53268,29.188015 236.700437,29.8056292 236.963018,30.2125341 C237.225598,30.6194389 237.852864,30.9100809 238.844834,31.0844687 C239.836805,31.2588565 240.916286,31.346049 242.08331,31.346049 C242.579295,31.346049 243.213854,31.3315169 243.987008,31.3024523 C244.760161,31.2733877 245.569772,31.2007272 246.415864,31.0844687 C247.349483,30.9682101 248.21015,30.7429626 248.997892,30.4087193 C249.785633,30.0744761 250.544187,29.6021829 251.273577,28.9918256 C252.002967,28.3814683 252.710464,27.6330653 253.396091,26.746594 C254.081717,25.8601227 254.789215,24.7920135 255.518605,23.5422343 L256,23.6730245 Z" fill="#ffffff">
   </path>
  </g>
 </g>
</svg>