<?xml version="1.0" encoding="UTF-8" standalone="no" ?>
<!DOCTYPE svg PUBLIC "-//W3C//DTD SVG 1.1//EN" "http://www.w3.org/Graphics/SVG/1.1/DTD/svg11.dtd">
<svg xmlns="http://www.w3.org/2000/svg" xmlns:xlink="http://www.w3.org/1999/xlink" version="1.1" width="1080" height="1080" viewBox="0 0 1080 1080" xml:space="preserve">
<desc>Created with Fabric.js 5.2.4</desc>
<defs>
</defs>
<rect x="0" y="0" width="100%" height="100%" fill="transparent"></rect>
<g transform="matrix(1 0 0 1 540 540)" id="930ad278-f48a-4c6a-aa87-2d982daa0442"  >
<rect style="stroke: none; stroke-width: 1; stroke-dasharray: none; stroke-linecap: butt; stroke-dashoffset: 0; stroke-linejoin: miter; stroke-miterlimit: 4; fill: rgb(255,255,255); fill-rule: nonzero; opacity: 1; visibility: hidden;" vector-effect="non-scaling-stroke"  x="-540" y="-540" rx="0" ry="0" width="1080" height="1080" />
</g>
<g transform="matrix(1 0 0 1 540 540)" id="fb635435-30d3-42b9-bf0c-f3e0358a6c13"  >
</g>
<g transform="matrix(1.4 0 0 1.4 540 540)"  >
<g style="" vector-effect="non-scaling-stroke"   >
		<g transform="matrix(0.13 0 0 -0.13 0 -120.2)"  >
<path style="stroke: none; stroke-width: 1; stroke-dasharray: none; stroke-linecap: butt; stroke-dashoffset: 0; stroke-linejoin: miter; stroke-miterlimit: 4; fill: rgb(255,255,255); fill-rule: nonzero; opacity: 1;" vector-effect="non-scaling-stroke"  transform=" translate(-5112.7, -5984.32)" d="M 4655 6920 C 3756 6848 3069 6634 2762 6329 C 2645 6213 2597 6114 2597 5990 C 2597 5864 2648 5760 2764 5646 C 3049 5369 3690 5153 4460 5075 C 5113 5009 5811 5046 6400 5176 C 7060 5322 7510 5579 7611 5868 C 7638 5944 7633 6062 7600 6140 C 7511 6348 7227 6544 6810 6685 C 6475 6798 6169 6859 5680 6911 C 5547 6925 4801 6931 4655 6920 z M 5515 6840 C 6532 6775 7312 6497 7490 6137 C 7552 6010 7536 5886 7441 5760 C 7240 5494 6674 5273 5960 5180 C 5355 5102 4787 5106 4190 5191 C 3558 5281 3023 5487 2817 5721 C 2708 5844 2673 5980 2720 6103 C 2860 6473 3646 6767 4690 6839 C 4862 6851 5333 6851 5515 6840 z" stroke-linecap="round" />
</g>
		<g transform="matrix(0.13 0 0 -0.13 -0.03 -121)"  >
<path style="stroke: none; stroke-width: 1; stroke-dasharray: none; stroke-linecap: butt; stroke-dashoffset: 0; stroke-linejoin: miter; stroke-miterlimit: 4; fill: rgb(255,255,255); fill-rule: nonzero; opacity: 1;" vector-effect="non-scaling-stroke"  transform=" translate(-5112.5, -5990.34)" d="M 4795 6769 C 4173 6742 3573 6616 3204 6435 C 2926 6300 2791 6153 2790 5989 C 2789 5705 3219 5453 3955 5306 C 4125 5271 4371 5237 4530 5225 C 4577 5221 4626 5216 4640 5214 C 4711 5202 5285 5198 5470 5209 C 6125 5246 6658 5361 7032 5546 C 7168 5613 7247 5667 7321 5742 C 7403 5825 7435 5894 7435 5990 C 7434 6053 7430 6074 7406 6119 C 7226 6465 6434 6722 5400 6770 C 5163 6781 5063 6781 4795 6769 z M 4865 6575 C 4953 6561 5068 6541 5120 6532 C 5252 6510 5643 6509 5750 6532 C 5832 6549 5850 6544 5850 6505 C 5850 6447 5719 6369 5587 6348 C 5477 6331 5349 6349 5111 6412 C 4945 6457 4916 6462 4906 6449 C 4900 6441 4865 6411 4828 6382 C 4756 6325 4677 6241 4647 6191 L 4629 6160 L 4692 6160 C 4780 6160 4800 6167 4800 6197 C 4800 6287 4905 6355 4960 6300 C 4999 6261 4976 6174 4919 6144 L 4888 6128 L 4910 6105 C 4929 6085 4931 6078 4920 6066 C 4906 6048 4882 6057 4843 6093 C 4822 6111 4812 6112 4720 6106 C 4664 6102 4609 6095 4596 6090 C 4583 6086 4551 6044 4520 5993 C 4360 5730 4220 5570 4096 5509 C 4037 5480 4015 5475 3936 5472 C 3849 5468 3842 5469 3780 5502 C 3646 5572 3603 5722 3677 5868 C 3719 5951 3810 6019 3884 6022 C 3951 6024 3961 5984 3902 5946 C 3760 5857 3746 5704 3876 5654 C 3914 5640 3928 5639 3973 5649 C 4050 5666 4126 5714 4210 5799 C 4282 5872 4420 6046 4420 6063 C 4420 6076 4360 6061 4307 6034 C 4252 6007 4234 6004 4227 6023 C 4213 6063 4299 6112 4417 6131 L 4490 6143 L 4545 6215 C 4614 6307 4706 6397 4775 6441 C 4805 6460 4829 6478 4830 6481 C 4830 6484 4784 6496 4728 6506 C 4585 6532 4367 6532 4290 6506 C 4198 6474 4150 6438 4119 6378 C 4064 6271 4141 6205 4257 6261 C 4280 6272 4320 6304 4345 6332 C 4423 6419 4448 6366 4379 6258 C 4265 6080 4063 6036 3973 6169 C 3938 6221 3941 6318 3979 6385 C 4036 6484 4157 6562 4305 6594 C 4410 6617 4661 6609 4865 6575 z M 6590 6260 C 6590 6255 6521 6144 6437 6013 C 6167 5593 6155 5569 6200 5555 C 6232 5545 6281 5576 6379 5667 C 6455 5738 6475 5752 6489 5743 C 6522 5722 6511 5700 6423 5612 C 6321 5509 6259 5467 6190 5450 C 6147 5440 6136 5440 6103 5457 C 6076 5470 6062 5484 6055 5508 C 6050 5525 6042 5540 6038 5540 C 6034 5540 6010 5524 5985 5505 C 5902 5443 5820 5436 5759 5487 C 5718 5522 5700 5566 5700 5631 C 5700 5659 5697 5680 5693 5678 C 5602 5631 5546 5621 5502 5644 C 5471 5660 5440 5705 5440 5735 C 5440 5743 5437 5750 5433 5750 C 5428 5750 5385 5687 5335 5611 C 5275 5517 5239 5470 5225 5468 C 5214 5466 5181 5467 5152 5470 L 5099 5475 L 5153 5560 C 5278 5760 5340 5868 5340 5889 C 5340 5971 5207 5870 5063 5679 C 4940 5514 4861 5458 4750 5458 C 4666 5458 4615 5490 4575 5569 L 4557 5604 L 4538 5579 C 4518 5555 4471 5520 4458 5520 C 4454 5520 4443 5532 4434 5546 C 4417 5571 4417 5572 4468 5623 C 4498 5654 4531 5701 4548 5740 C 4620 5898 4717 5982 4865 6014 C 4899 6021 4927 6006 4932 5976 C 4934 5961 4921 5949 4878 5926 C 4765 5865 4700 5777 4700 5684 C 4700 5527 4880 5559 4958 5729 C 4982 5782 4988 5850 4978 5949 C 4976 5967 4983 5978 5006 5992 C 5023 6002 5044 6008 5053 6004 C 5071 5998 5100 5920 5100 5881 C 5100 5857 5105 5861 5162 5919 C 5242 6000 5284 6028 5343 6036 C 5405 6045 5437 6024 5446 5970 C 5450 5948 5455 5930 5457 5930 C 5460 5930 5482 5947 5506 5969 C 5577 6031 5654 6041 5705 5994 C 5725 5976 5730 5961 5730 5925 C 5730 5815 5596 5777 5565 5878 C 5557 5906 5542 5897 5523 5853 C 5505 5809 5514 5764 5546 5743 C 5592 5713 5659 5748 5808 5879 C 5886 5948 5931 5978 5982 5996 C 6066 6025 6157 6004 6189 5948 C 6198 5933 6208 5920 6211 5920 C 6215 5920 6256 5980 6304 6053 C 6351 6126 6403 6205 6420 6228 L 6450 6270 L 6520 6270 C 6559 6270 6590 6266 6590 6260 z" stroke-linecap="round" />
</g>
		<g transform="matrix(0.13 0 0 -0.13 -29.17 -152.77)"  >
<path style="stroke: none; stroke-width: 1; stroke-dasharray: none; stroke-linecap: butt; stroke-dashoffset: 0; stroke-linejoin: miter; stroke-miterlimit: 4; fill: rgb(255,255,255); fill-rule: nonzero; opacity: 1;" vector-effect="non-scaling-stroke"  transform=" translate(-4893.89, -6228.65)" d="M 4876 6248 C 4856 6220 4855 6190 4874 6190 C 4892 6190 4932 6239 4927 6254 C 4920 6274 4892 6271 4876 6248 z" stroke-linecap="round" />
</g>
		<g transform="matrix(0.13 0 0 -0.13 116.06 -88.14)"  >
<path style="stroke: none; stroke-width: 1; stroke-dasharray: none; stroke-linecap: butt; stroke-dashoffset: 0; stroke-linejoin: miter; stroke-miterlimit: 4; fill: rgb(255,255,255); fill-rule: nonzero; opacity: 1;" vector-effect="non-scaling-stroke"  transform=" translate(-5983.13, -5743.89)" d="M 6022 5904 C 6004 5895 5969 5864 5943 5836 C 5855 5738 5822 5619 5875 5584 C 5895 5571 5906 5570 5931 5579 C 6003 5604 6110 5725 6110 5781 C 6110 5794 6112 5823 6115 5845 C 6118 5867 6117 5890 6113 5897 C 6099 5917 6056 5921 6022 5904 z" stroke-linecap="round" />
</g>
		<g transform="matrix(0.13 0 0 -0.13 125.51 118.92)"  >
<path style="stroke: none; stroke-width: 1; stroke-dasharray: none; stroke-linecap: butt; stroke-dashoffset: 0; stroke-linejoin: miter; stroke-miterlimit: 4; fill: rgb(255,255,255); fill-rule: nonzero; opacity: 1;" vector-effect="non-scaling-stroke"  transform=" translate(-6053.99, -4190.94)" d="M 5910 4660 C 5765 4635 5645 4542 5599 4421 C 5550 4290 5551 4088 5602 3955 C 5641 3853 5736 3770 5855 3733 C 5948 3705 6182 3708 6270 3739 C 6376 3776 6446 3834 6490 3920 C 6530 4000 6545 4072 6545 4190 C 6545 4248 6538 4320 6531 4350 C 6487 4525 6371 4630 6189 4659 C 6116 4671 5977 4671 5910 4660 z M 6200 4455 C 6298 4406 6335 4330 6334 4180 C 6334 4017 6281 3938 6149 3904 C 6083 3887 6001 3889 5929 3910 C 5876 3925 5814 3983 5793 4038 C 5771 4096 5768 4265 5789 4323 C 5813 4393 5878 4451 5955 4471 C 6007 4485 6161 4475 6200 4455 z" stroke-linecap="round" />
</g>
		<g transform="matrix(0.13 0 0 -0.13 -135.49 119.05)"  >
<path style="stroke: none; stroke-width: 1; stroke-dasharray: none; stroke-linecap: butt; stroke-dashoffset: 0; stroke-linejoin: miter; stroke-miterlimit: 4; fill: rgb(255,255,255); fill-rule: nonzero; opacity: 1;" vector-effect="non-scaling-stroke"  transform=" translate(-4096.5, -4190)" d="M 3690 4190 L 3690 3720 L 3790 3720 L 3890 3720 L 3890 3864 L 3890 4008 L 4078 4012 C 4244 4016 4271 4019 4324 4039 C 4448 4088 4503 4180 4503 4339 C 4503 4462 4489 4505 4426 4566 C 4344 4646 4305 4654 3968 4657 L 3690 4660 L 3690 4190 z M 4219 4467 C 4288 4443 4319 4352 4286 4266 C 4260 4198 4234 4190 4046 4190 L 3890 4190 L 3890 4335 L 3890 4480 L 4038 4479 C 4125 4479 4199 4474 4219 4467 z" stroke-linecap="round" />
</g>
		<g transform="matrix(0.13 0 0 -0.13 -9.36 119.11)"  >
<path style="stroke: none; stroke-width: 1; stroke-dasharray: none; stroke-linecap: butt; stroke-dashoffset: 0; stroke-linejoin: miter; stroke-miterlimit: 4; fill: rgb(255,255,255); fill-rule: nonzero; opacity: 1;" vector-effect="non-scaling-stroke"  transform=" translate(-5042.5, -4189.5)" d="M 4640 4190 L 4640 3719 L 4738 3722 L 4835 3725 L 4838 3878 L 4841 4030 L 4943 4030 L 5045 4030 L 5119 3897 C 5160 3825 5199 3756 5206 3744 C 5217 3726 5229 3724 5324 3721 C 5393 3720 5430 3722 5430 3729 C 5430 3735 5391 3810 5344 3895 C 5297 3981 5260 4053 5261 4054 C 5263 4056 5283 4067 5305 4078 C 5358 4105 5394 4144 5422 4205 C 5440 4246 5444 4273 5445 4350 C 5445 4466 5426 4523 5370 4574 C 5290 4646 5207 4660 4868 4660 L 4640 4660 L 4640 4190 z M 5170 4467 C 5253 4439 5267 4284 5191 4233 C 5169 4218 5138 4214 5003 4212 L 4840 4208 L 4840 4344 L 4840 4480 L 4988 4479 C 5074 4479 5149 4474 5170 4467 z" stroke-linecap="round" />
</g>
		<g transform="matrix(0.13 0 0 -0.13 196.87 67.79)"  >
<path style="stroke: none; stroke-width: 1; stroke-dasharray: none; stroke-linecap: butt; stroke-dashoffset: 0; stroke-linejoin: miter; stroke-miterlimit: 4; fill: rgb(255,255,255); fill-rule: nonzero; opacity: 1;" vector-effect="non-scaling-stroke"  transform=" translate(-6589.2, -4574.39)" d="M 6527 4654 C 6512 4638 6521 4620 6545 4620 C 6569 4620 6570 4618 6570 4555 C 6570 4497 6572 4490 6590 4490 C 6608 4490 6610 4497 6610 4555 C 6610 4618 6611 4620 6636 4620 C 6655 4620 6661 4625 6658 4638 C 6655 4651 6643 4656 6594 4658 C 6561 4660 6531 4658 6527 4654 z" stroke-linecap="round" />
</g>
		<g transform="matrix(0.13 0 0 -0.13 220 67.84)"  >
<path style="stroke: none; stroke-width: 1; stroke-dasharray: none; stroke-linecap: butt; stroke-dashoffset: 0; stroke-linejoin: miter; stroke-miterlimit: 4; fill: rgb(255,255,255); fill-rule: nonzero; opacity: 1;" vector-effect="non-scaling-stroke"  transform=" translate(-6762.7, -4574.08)" d="M 6679 4644 C 6675 4595 6675 4513 6678 4503 C 6680 4496 6688 4490 6696 4490 C 6706 4490 6710 4503 6711 4533 L 6711 4575 L 6730 4533 C 6754 4479 6773 4479 6790 4531 C 6809 4587 6820 4589 6820 4536 C 6820 4501 6824 4490 6835 4490 C 6858 4490 6852 4653 6829 4658 C 6818 4660 6806 4643 6790 4601 C 6776 4568 6763 4543 6761 4546 C 6758 4549 6746 4574 6734 4602 C 6714 4651 6681 4675 6679 4644 z" stroke-linecap="round" />
</g>
		<g transform="matrix(0.13 0 0 -0.13 1.04 227.71)"  >
<path style="stroke: none; stroke-width: 1; stroke-dasharray: none; stroke-linecap: butt; stroke-dashoffset: 0; stroke-linejoin: miter; stroke-miterlimit: 4; fill: rgb(255,255,255); fill-rule: nonzero; opacity: 1;" vector-effect="non-scaling-stroke"  transform=" translate(-5120.5, -3375)" d="M 3690 3375 L 3690 3240 L 5110 3240 C 5891 3240 6533 3240 6538 3240 C 6542 3240 6546 3301 6548 3375 L 6551 3510 L 5120 3510 L 3690 3510 L 3690 3375 z" stroke-linecap="round" />
</g>
</g>
</g>
</svg>