<svg xmlns="http://www.w3.org/2000/svg" xmlns:xlink="http://www.w3.org/1999/xlink" version="1.1" width="1000" height="1000" viewBox="0 0 1000 1000" xml:space="preserve">
<desc>Created with Fabric.js 3.5.0</desc>
<defs>
</defs>
<rect x="0" y="0" width="100%" height="100%" fill="rgba(255,27,27,0)"/>
<g transform="matrix(1.7031 0 0 1.7031 181.3915 499.9977)" id="378732">
<g style="" vector-effect="non-scaling-stroke">
		<g transform="matrix(1 0 0 1 20.53 -0.2725)" id="168875">
<path style="stroke: none; stroke-width: 1; stroke-dasharray: none; stroke-linecap: butt; stroke-dashoffset: 0; stroke-linejoin: miter; stroke-miterlimit: 4; is-custom-font: none; font-file-url: none; fill: rgb(255,255,255); fill-rule: nonzero; opacity: 1;" transform=" translate(-104.53, -77.7275)" d="M 83.624 155.455 V 52.5331 L 125.436 0 V 105.066 L 83.624 155.455 Z" stroke-linecap="round"/>
</g>
		<g transform="matrix(1 0 0 1 -21.282 -0.2725)" id="787887">
<path style="stroke: none; stroke-width: 1; stroke-dasharray: none; stroke-linecap: butt; stroke-dashoffset: 0; stroke-linejoin: miter; stroke-miterlimit: 4; is-custom-font: none; font-file-url: none; fill: rgb(255,255,255); fill-rule: nonzero; opacity: 1;" transform=" translate(-62.718, -77.7275)" d="M 83.624 155.455 V 52.5331 L 41.812 0 V 105.066 L 83.624 155.455 Z" stroke-linecap="round"/>
</g>
		<g transform="matrix(1 0 0 1 62.342 -0.2725)" id="548849">
<path style="stroke: none; stroke-width: 1; stroke-dasharray: none; stroke-linecap: butt; stroke-dashoffset: 0; stroke-linejoin: miter; stroke-miterlimit: 4; is-custom-font: none; font-file-url: none; fill: rgb(255,255,255); fill-rule: nonzero; opacity: 1;" transform=" translate(-146.342, -77.7275)" d="M 167.248 155.455 V 52.5331 L 125.436 0 V 105.066 L 167.248 155.455 Z" stroke-linecap="round"/>
</g>
		<g transform="matrix(1 0 0 1 -63.0939 -0.2725)" id="804865">
<path style="stroke: none; stroke-width: 1; stroke-dasharray: none; stroke-linecap: butt; stroke-dashoffset: 0; stroke-linejoin: miter; stroke-miterlimit: 4; is-custom-font: none; font-file-url: none; fill: rgb(255,255,255); fill-rule: nonzero; opacity: 1;" transform=" translate(-20.9061, -77.7275)" d="M 0 155.455 V 52.5331 L 41.8121 0 V 105.066 L 0 155.455 Z" stroke-linecap="round"/>
</g>
</g>
</g>
<g transform="matrix(1 0 0 1 664.5095 553.1674)" style="" id="83442">
		
<path xml:space="preserve" font-family="Lato" font-size="144" font-style="normal" font-weight="bold" style="stroke: none; stroke-width: 0; stroke-dasharray: none; stroke-linecap: butt; stroke-dashoffset: 0; stroke-linejoin: miter; stroke-miterlimit: 4; is-custom-font: none; font-file-url: none; fill: rgb(255,255,255); fill-rule: nonzero; opacity: 1; white-space: pre;" d="M-252.86-9.70L-252.86-9.70Q-246.31-9.70-241.45-10.89Q-236.59-12.08-232.20-14.16L-232.20-14.16L-232.20-33.10L-245.23-33.10Q-247.10-33.10-248.18-34.14Q-249.26-35.19-249.26-36.70L-249.26-36.70L-249.26-47.64L-214.63-47.64L-214.63-5.52Q-218.59-2.64-222.88-0.52Q-227.16 1.60-232.02 2.97Q-236.88 4.34-242.42 5.02Q-247.97 5.71-254.38 5.71L-254.38 5.71Q-265.75 5.71-275.33 1.75Q-284.90-2.21-291.89-9.27Q-298.87-16.32-302.80-26.12Q-306.72-35.91-306.72-47.50L-306.72-47.50Q-306.72-59.24-302.90-69.03Q-299.09-78.82-292.07-85.88Q-285.05-92.93-275.04-96.82Q-265.03-100.71-252.58-100.71L-252.58-100.71Q-239.83-100.71-230.51-96.93Q-221.18-93.15-214.70-87.10L-214.70-87.10L-220.32-78.32Q-221.98-75.65-224.71-75.65L-224.71-75.65Q-226.44-75.65-228.24-76.80L-228.24-76.80Q-230.54-78.17-232.96-79.54Q-235.37-80.91-238.28-81.92Q-241.20-82.92-244.84-83.57Q-248.47-84.22-253.22-84.22L-253.22-84.22Q-260.93-84.22-267.16-81.63Q-273.38-79.04-277.78-74.21Q-282.17-69.39-284.54-62.62Q-286.92-55.85-286.92-47.50L-286.92-47.50Q-286.92-38.50-284.40-31.48Q-281.88-24.46-277.34-19.64Q-272.81-14.81-266.54-12.26Q-260.28-9.70-252.86-9.70ZM-167.04-70.47L-167.04-70.47Q-160.06-70.47-154.19-68.24Q-148.32-66.00-144.07-61.72Q-139.82-57.44-137.45-51.21Q-135.07-44.98-135.07-36.99L-135.07-36.99Q-135.07-34.97-135.25-33.64Q-135.43-32.31-135.90-31.55Q-136.37-30.80-137.16-30.47Q-137.95-30.15-139.18-30.15L-139.18-30.15L-184.82-30.15Q-184.03-18.77-178.70-13.44Q-173.38-8.12-164.59-8.12L-164.59-8.12Q-160.27-8.12-157.14-9.12Q-154.01-10.13-151.67-11.36Q-149.33-12.58-147.56-13.59Q-145.80-14.60-144.14-14.60L-144.14-14.60Q-143.06-14.60-142.27-14.16Q-141.48-13.73-140.90-12.94L-140.90-12.94L-135.72-6.46Q-138.67-3.00-142.34-0.66Q-146.02 1.68-150.01 3.08Q-154.01 4.48-158.15 5.06Q-162.29 5.64-166.18 5.64L-166.18 5.64Q-173.88 5.64-180.50 3.08Q-187.13 0.52-192.02-4.48Q-196.92-9.48-199.73-16.86Q-202.54-24.24-202.54-33.96L-202.54-33.96Q-202.54-41.52-200.09-48.18Q-197.64-54.84-193.07-59.78Q-188.50-64.71-181.91-67.59Q-175.32-70.47-167.04-70.47ZM-166.68-57.72L-166.68-57.72Q-174.46-57.72-178.85-53.33Q-183.24-48.94-184.46-40.88L-184.46-40.88L-151.06-40.88Q-151.06-44.33-151.99-47.39Q-152.93-50.45-154.87-52.76Q-156.82-55.06-159.77-56.39Q-162.72-57.72-166.68-57.72ZM-89.06-70.47L-89.06-70.47Q-80.78-70.47-74.05-67.80Q-67.32-65.14-62.57-60.24Q-57.82-55.35-55.22-48.29Q-52.63-41.24-52.63-32.52L-52.63-32.52Q-52.63-23.74-55.22-16.68Q-57.82-9.63-62.57-4.66Q-67.32 0.31-74.05 2.97Q-80.78 5.64-89.06 5.64L-89.06 5.64Q-97.34 5.64-104.11 2.97Q-110.88 0.31-115.67-4.66Q-120.46-9.63-123.08-16.68Q-125.71-23.74-125.71-32.52L-125.71-32.52Q-125.71-41.24-123.08-48.29Q-120.46-55.35-115.67-60.24Q-110.88-65.14-104.11-67.80Q-97.34-70.47-89.06-70.47ZM-89.06-8.04L-89.06-8.04Q-79.85-8.04-75.42-14.24Q-70.99-20.43-70.99-32.38L-70.99-32.38Q-70.99-44.33-75.42-50.60Q-79.85-56.86-89.06-56.86L-89.06-56.86Q-98.42-56.86-102.89-50.56Q-107.35-44.26-107.35-32.38L-107.35-32.38Q-107.35-20.50-102.89-14.27Q-98.42-8.04-89.06-8.04ZM10.08-9.70L10.08-9.70Q16.63-9.70 21.49-10.89Q26.35-12.08 30.74-14.16L30.74-14.16L30.74-33.10L17.71-33.10Q15.84-33.10 14.76-34.14Q13.68-35.19 13.68-36.70L13.68-36.70L13.68-47.64L48.31-47.64L48.31-5.52Q44.35-2.64 40.07-0.52Q35.78 1.60 30.92 2.97Q26.06 4.34 20.52 5.02Q14.98 5.71 8.57 5.71L8.57 5.71Q-2.81 5.71-12.38 1.75Q-21.96-2.21-28.94-9.27Q-35.93-16.32-39.85-26.12Q-43.78-35.91-43.78-47.50L-43.78-47.50Q-43.78-59.24-39.96-69.03Q-36.14-78.82-29.12-85.88Q-22.10-92.93-12.10-96.82Q-2.09-100.71 10.37-100.71L10.37-100.71Q23.11-100.71 32.44-96.93Q41.76-93.15 48.24-87.10L48.24-87.10L42.62-78.32Q40.97-75.65 38.23-75.65L38.23-75.65Q36.50-75.65 34.70-76.80L34.70-76.80Q32.40-78.17 29.99-79.54Q27.58-80.91 24.66-81.92Q21.74-82.92 18.11-83.57Q14.47-84.22 9.72-84.22L9.72-84.22Q2.02-84.22-4.21-81.63Q-10.44-79.04-14.83-74.21Q-19.22-69.39-21.60-62.62Q-23.98-55.85-23.98-47.50L-23.98-47.50Q-23.98-38.50-21.46-31.48Q-18.94-24.46-14.40-19.64Q-9.86-14.81-3.60-12.26Q2.66-9.70 10.08-9.70ZM83.16 4.56L65.38 4.56L65.38-69.32L75.82-69.32Q78.55-69.32 79.63-68.31Q80.71-67.30 81.07-64.85L81.07-64.85L82.15-55.92Q86.11-62.76 91.44-66.72Q96.77-70.68 103.39-70.68L103.39-70.68Q108.86-70.68 112.46-68.16L112.46-68.16L110.16-54.84Q109.94-53.55 109.22-53.01Q108.50-52.47 107.28-52.47L107.28-52.47Q106.20-52.47 104.33-52.97Q102.46-53.48 99.36-53.48L99.36-53.48Q93.82-53.48 89.86-50.42Q85.90-47.36 83.16-41.45L83.16-41.45L83.16 4.56ZM125.35-69.32L143.14-69.32L143.14 4.56L125.35 4.56L125.35-69.32ZM145.80-90.84L145.80-90.84Q145.80-88.54 144.86-86.52Q143.93-84.51 142.38-83.00Q140.83-81.48 138.74-80.58Q136.66-79.68 134.28-79.68L134.28-79.68Q131.98-79.68 129.92-80.58Q127.87-81.48 126.36-83.00Q124.85-84.51 123.95-86.52Q123.05-88.54 123.05-90.84L123.05-90.84Q123.05-93.22 123.95-95.31Q124.85-97.40 126.36-98.91Q127.87-100.42 129.92-101.32Q131.98-102.22 134.28-102.22L134.28-102.22Q136.66-102.22 138.74-101.32Q140.83-100.42 142.38-98.91Q143.93-97.40 144.86-95.31Q145.80-93.22 145.80-90.84ZM181.01 4.56L163.22 4.56L163.22-69.32L174.10-69.32Q177.55-69.32 178.63-66.08L178.63-66.08L179.86-60.24Q182.09-62.55 184.57-64.42Q187.06-66.29 189.83-67.66Q192.60-69.03 195.77-69.75Q198.94-70.47 202.68-70.47L202.68-70.47Q208.73-70.47 213.41-68.42Q218.09-66.36 221.22-62.66Q224.35-58.95 225.97-53.80Q227.59-48.65 227.59-42.46L227.59-42.46L227.59 4.56L209.81 4.56L209.81-42.46Q209.81-49.23 206.68-52.94Q203.54-56.64 197.28-56.64L197.28-56.64Q192.67-56.64 188.64-54.56Q184.61-52.47 181.01-48.87L181.01-48.87L181.01 4.56ZM307.94 4.56L297.07 4.56Q293.62 4.56 292.54 1.32L292.54 1.32L291.10-5.81Q288.79-3.22 286.27-1.13Q283.75 0.96 280.84 2.47Q277.92 3.98 274.57 4.81Q271.22 5.64 267.34 5.64L267.34 5.64Q261.29 5.64 256.25 3.12Q251.21 0.60 247.57-4.19Q243.94-8.98 241.96-16.04Q239.98-23.09 239.98-32.16L239.98-32.16Q239.98-40.37 242.21-47.43Q244.44-54.48 248.62-59.67Q252.79-64.85 258.62-67.77Q264.46-70.68 271.73-70.68L271.73-70.68Q277.92-70.68 282.31-68.70Q286.70-66.72 290.16-63.41L290.16-63.41L290.16-102.44L307.94-102.44L307.94 4.56ZM273.38-8.48L273.38-8.48Q278.93-8.48 282.82-10.78Q286.70-13.08 290.16-17.33L290.16-17.33L290.16-50.45Q287.14-54.12 283.57-55.64Q280.01-57.15 275.90-57.15L275.90-57.15Q271.87-57.15 268.60-55.64Q265.32-54.12 263.05-51.06Q260.78-48.00 259.56-43.29Q258.34-38.57 258.34-32.16L258.34-32.16Q258.34-25.68 259.38-21.18Q260.42-16.68 262.37-13.84Q264.31-11.00 267.12-9.74Q269.93-8.48 273.38-8.48Z"/></g>
</svg>