<svg xmlns="http://www.w3.org/2000/svg" xmlns:xlink="http://www.w3.org/1999/xlink" version="1.1" width="1000" height="1000" viewBox="0 0 1000 1000" xml:space="preserve">
<desc>Created with Fabric.js 3.5.0</desc>
<defs>
</defs>
<rect x="0" y="0" width="100%" height="100%" fill="rgba(255,255,255,0)"/>
<g transform="matrix(0.3125 0 0 0.3125 500 500)" id="516996">
<g style="" vector-effect="non-scaling-stroke">
		<g transform="matrix(0.1333 0 0 -0.1333 -0.3515 -466.803)">
<path style="stroke: none; stroke-width: 1; stroke-dasharray: none; stroke-linecap: butt; stroke-dashoffset: 0; stroke-linejoin: miter; stroke-miterlimit: 4; is-custom-font: none; font-file-url: none; fill: rgb(255,255,255); fill-rule: nonzero; opacity: 1;" transform=" translate(-11999.5764, -15499.3579)" d="M 11936 22148 c -36 -13 -8670 -4981 -8712 -5014 c -18 -13 -41 -43 -53 -67 l -21 -43 l 0 -4016 l 0 -4015 l 23 -44 c 35 -66 93 -102 170 -107 c 74 -5 49 -16 478 230 c 167 97 660 380 1094 630 c 435 250 880 507 990 570 c 312 180 2486 1431 3445 1983 c 476 274 937 539 1025 590 c 88 51 490 282 893 514 l 733 422 l 843 -486 c 900 -518 888 -512 971 -483 c 32 11 1130 639 2315 1324 c 172 99 3349 1927 4135 2379 c 534 307 517 296 549 342 c 59 85 42 217 -38 277 c -17 14 -668 391 -1446 839 c -6163 3547 -7239 4165 -7269 4175 c -41 14 -86 14 -125 0 z m 4178 -2807 c 2259 -1300 4104 -2367 4099 -2371 c -17 -16 -6449 -3713 -6458 -3713 c -5 1 -374 211 -820 468 c -445 257 -828 476 -850 486 c -47 22 -113 24 -158 5 c -18 -7 -1845 -1057 -4062 -2333 c -2216 -1276 -4090 -2354 -4163 -2396 l -132 -76 l 0 3723 l 0 3723 l 673 387 c 369 212 2265 1304 4212 2425 c 1947 1121 3543 2038 3546 2037 c 4 0 1855 -1065 4113 -2365 z" stroke-linecap="round"/>
</g>
		<g transform="matrix(0.1333 0 0 -0.1333 -120.4386 -509.0479)">
<path style="stroke: none; stroke-width: 1; stroke-dasharray: none; stroke-linecap: butt; stroke-dashoffset: 0; stroke-linejoin: miter; stroke-miterlimit: 4; is-custom-font: none; font-file-url: none; fill: rgb(255,255,255); fill-rule: nonzero; opacity: 1;" transform=" translate(-11098.0779, -15816.9883)" d="M 11915 19281 c -22 -10 -726 -413 -1565 -896 c -839 -483 -2225 -1280 -3080 -1772 c -855 -493 -1565 -904 -1577 -916 c -13 -11 -32 -39 -43 -62 c -20 -41 -20 -55 -18 -1602 l 3 -1561 l 30 -43 c 52 -74 140 -109 218 -88 c 22 6 120 56 216 111 c 97 56 637 367 1201 691 c 564 324 1140 656 1280 737 c 140 80 543 312 895 515 c 352 202 744 428 870 500 c 127 73 551 317 943 543 l 713 410 l 817 -470 c 449 -259 835 -479 857 -489 c 46 -21 98 -24 146 -7 c 18 6 119 61 224 121 c 104 60 426 246 715 412 c 289 166 782 450 1095 630 c 672 386 653 374 685 421 c 21 32 25 49 25 115 c 0 128 4 124 -425 371 c -201 116 -1186 683 -2190 1261 c -1004 577 -1843 1058 -1865 1068 c -51 24 -119 24 -170 0 z m 2066 -1569 c 1077 -620 1959 -1129 1959 -1132 c 0 -3 -492 -287 -1092 -632 l -1091 -628 l -216 124 c -119 68 -494 284 -835 480 c -340 196 -638 362 -662 368 c -33 9 -54 9 -87 1 c -23 -7 -1361 -770 -2971 -1697 c -1611 -927 -2931 -1686 -2933 -1686 c -1 0 -3 566 -3 1259 l 0 1259 l 553 317 c 303 175 725 418 937 540 c 212 122 570 328 795 458 c 226 130 1141 657 2035 1171 c 894 515 1631 933 1638 931 c 8 -3 895 -512 1973 -1133 z" stroke-linecap="round"/>
</g>
		<g transform="matrix(0.1333 0 0 -0.1333 -0.2385 466.5289)">
<path style="stroke: none; stroke-width: 1; stroke-dasharray: none; stroke-linecap: butt; stroke-dashoffset: 0; stroke-linejoin: miter; stroke-miterlimit: 4; is-custom-font: none; font-file-url: none; fill: rgb(255,255,255); fill-rule: nonzero; opacity: 1;" transform=" translate(-12000.4236, -8499.3683)" d="M 20573 15150 c -13 -5 -292 -164 -620 -353 c -773 -445 -3001 -1728 -5760 -3316 l -2193 -1261 l -837 482 c -578 332 -852 485 -884 492 c -35 7 -57 6 -90 -5 c -34 -12 -3454 -1975 -6764 -3883 c -173 -100 -214 -128 -239 -163 c -59 -85 -42 -218 38 -277 c 68 -52 8693 -5008 8733 -5019 c 33 -8 54 -8 87 1 c 41 11 8664 4966 8732 5018 c 18 13 41 43 53 67 l 21 43 l 0 4016 l 0 4015 l -23 44 c -35 66 -93 102 -170 106 c -34 2 -72 -1 -84 -7 z m -143 -4284 l 0 -3723 l -157 -91 c -87 -49 -1984 -1141 -4215 -2425 l -4058 -2335 l -3327 1915 c -1831 1053 -3677 2116 -4103 2360 c -426 245 -779 449 -783 453 c -5 4 18 23 50 41 c 57 32 1890 1087 2953 1699 c 2786 1604 3446 1983 3455 1983 c 6 0 387 -218 849 -483 c 756 -436 844 -484 890 -488 c 32 -2 65 1 86 10 c 19 8 811 462 1760 1008 c 1758 1012 2832 1630 3315 1908 c 149 85 338 194 420 242 c 83 48 708 408 1390 800 c 682 392 1292 744 1355 781 c 63 37 116 68 118 68 c 1 1 2 -1675 2 -3723 z" stroke-linecap="round"/>
</g>
		<g transform="matrix(0.1333 0 0 -0.1333 119.9138 508.8783)">
<path style="stroke: none; stroke-width: 1; stroke-dasharray: none; stroke-linecap: butt; stroke-dashoffset: 0; stroke-linejoin: miter; stroke-miterlimit: 4; is-custom-font: none; font-file-url: none; fill: rgb(255,255,255); fill-rule: nonzero; opacity: 1;" transform=" translate(-12900.7211, -8182.5427)" d="M 18110 11658 c -19 -5 -498 -277 -1065 -603 c -566 -326 -1933 -1113 -3037 -1748 l -2008 -1155 l -582 335 c -321 184 -688 396 -816 470 c -128 74 -252 143 -275 154 c -48 21 -99 24 -146 8 c -27 -10 -2480 -1416 -2641 -1514 c -75 -46 -103 -91 -108 -171 c -5 -81 22 -142 81 -183 c 23 -15 179 -107 347 -203 c 168 -97 1140 -656 2160 -1243 c 1020 -587 1873 -1076 1895 -1086 c 51 -24 119 -24 171 0 c 22 10 295 165 605 343 c 1361 784 4071 2344 4799 2763 c 437 251 805 466 817 478 c 13 11 32 39 43 62 c 20 41 20 59 20 1588 c 0 1681 3 1585 -53 1645 c -49 52 -142 79 -207 60 z m -160 -1827 l 0 -1259 l -372 -214 c -4061 -2338 -5566 -3202 -5578 -3202 c -8 0 -791 447 -1740 993 c -949 546 -1832 1054 -1962 1129 c -131 76 -238 139 -238 142 c 0 3 283 167 628 365 c 344 198 836 480 1091 627 c 350 202 468 265 481 258 c 9 -5 385 -221 835 -480 c 451 -259 839 -476 862 -483 c 33 -8 54 -8 87 1 c 24 6 295 156 602 333 c 308 177 665 382 794 457 c 129 74 278 160 330 190 c 52 30 709 408 1460 840 c 751 432 1669 960 2040 1174 c 371 213 676 388 677 388 c 2 0 3 -567 3 -1259 z" stroke-linecap="round"/>
</g>
</g>
</g>
</svg>