<svg xmlns="http://www.w3.org/2000/svg" xmlns:xlink="http://www.w3.org/1999/xlink" width="89" height="26" viewBox="0 0 89 26">
  <defs>
    <clipPath id="clip-path">
      <rect id="Rectangle_1079" data-name="Rectangle 1079" width="89" height="26" fill="none"/>
    </clipPath>
  </defs>
  <g id="Group_668" data-name="Group 668" transform="translate(-98 -29)">
    <g id="Group_658" data-name="Group 658" transform="translate(98 29)">
      <g id="Group_625" data-name="Group 625">
        <g id="Group_624" data-name="Group 624" clip-path="url(#clip-path)">
          <path id="Path_5717" data-name="Path 5717" d="M266.444,43.8l-8.571-11.294a2.1,2.1,0,0,0-3.774,1.254V49.127h3.352V37.048L266.022,48.3a2.1,2.1,0,0,0,1.673.827h0a2.091,2.091,0,0,0,2.1-2.084V31.675h-3.351Z" transform="translate(-220.346 -27.495)" fill="#0a0e11"/>
          <path id="Path_5718" data-name="Path 5718" d="M395.48,73.344a6.267,6.267,0,0,0-.923-.4,6.784,6.784,0,0,0-2.119-.364c-.046,0-.091,0-.137,0a6.4,6.4,0,0,0-3.282.849,6,6,0,0,0-2.254,2.262,6.469,6.469,0,0,0,.057,6.326,5.929,5.929,0,0,0,2.3,2.2,6.425,6.425,0,0,0,.935.413A6.769,6.769,0,0,0,392.3,85a6.655,6.655,0,0,0,2.239-.368,5.9,5.9,0,0,0,1.044-.482,6.005,6.005,0,0,0,2.254-2.262,6.513,6.513,0,0,0-.057-6.35,5.859,5.859,0,0,0-2.3-2.193m-.935,7.865a2.906,2.906,0,0,1-2.106.94l-.137,0a3.421,3.421,0,0,1-.37-.019,2.866,2.866,0,0,1-1.872-.923,3.8,3.8,0,0,1-.011-4.845,2.843,2.843,0,0,1,1.883-.923,3.483,3.483,0,0,1,.37-.018l.137,0a2.891,2.891,0,0,1,2.117.939,3.8,3.8,0,0,1-.011,4.845" transform="translate(-334.698 -62.998)" fill="#0a0e11"/>
          <path id="Path_5719" data-name="Path 5719" d="M488.261,82.62l-.361,1.068-2.728-8.336h-3.537L485.588,85.5a2.435,2.435,0,0,0,4.53,0l3.954-10.147h-3.352Z" transform="translate(-417.656 -65.41)" fill="#0a0e11"/>
          <path id="Path_5720" data-name="Path 5720" d="M585.437,72.942l-.045,1.516a3.913,3.913,0,0,0-1.56-1.389,4.792,4.792,0,0,0-2.185-.494,5.264,5.264,0,0,0-1.973.367,5.039,5.039,0,0,0-.94.494,5.788,5.788,0,0,0-2,2.274,6.869,6.869,0,0,0-.705,3.111,7.074,7.074,0,0,0,.717,3.249,5.28,5.28,0,0,0,1.952,2.17,5.085,5.085,0,0,0,.78.39,5.789,5.789,0,0,0,4.317-.1,3.835,3.835,0,0,0,1.6-1.389l.045,1.492h3.075V72.942Zm-.831,8.267a2.932,2.932,0,0,1-2.243.942,3.337,3.337,0,0,1-.878-.111,2.851,2.851,0,0,1-1.364-.831,3.8,3.8,0,0,1-.011-4.845,2.79,2.79,0,0,1,1.375-.832,3.37,3.37,0,0,1,.878-.109,2.922,2.922,0,0,1,2.254.941,3.8,3.8,0,0,1-.011,4.845" transform="translate(-499.512 -62.998)" fill="#0a0e11"/>
          <path id="Path_5721" data-name="Path 5721" d="M76.186,12.894l6.241,6.825A1.981,1.981,0,0,0,85.871,18.4V7.06a3.267,3.267,0,0,1,1.081-2.425L91.763.293v19.4a6.6,6.6,0,0,1-11.48,4.406L76.7,20.175a1.958,1.958,0,0,1-.514-1.322Z" transform="translate(-66.066 -0.254)" fill="#0a0e11"/>
          <path id="Path_5722" data-name="Path 5722" d="M15.577,13.36,9.336,6.535A1.981,1.981,0,0,0,5.892,7.857V19.194A3.267,3.267,0,0,1,4.811,21.62L0,25.961V6.566A6.6,6.6,0,0,1,11.48,2.16l3.582,3.919A1.959,1.959,0,0,1,15.577,7.4Z" transform="translate(0 0)" fill="#0a0e11"/>
        </g>
      </g>
    </g>
  </g>
</svg>
