<svg xmlns="http://www.w3.org/2000/svg" xmlns:xlink="http://www.w3.org/1999/xlink" version="1.1" width="1000" height="1000" viewBox="0 0 1000 1000" xml:space="preserve">
<desc>Created with Fabric.js 3.5.0</desc>
<defs>
</defs>
<rect x="0" y="0" width="100%" height="100%" fill="rgba(255,255,255,0)"/>
<g transform="matrix(10.2145 0 0 10.2145 499.9997 499.9999)" id="322977">
<g style="" vector-effect="non-scaling-stroke">
		<g transform="matrix(1 0 0 1 -2.899 -0.0946)" id="Path_5717" clip-path="url(#CLIPPATH_15)">
<clipPath id="CLIPPATH_15">
	<rect transform="matrix(1 0 0 1 2.899 0.0946)" id="Rectangle_1079" x="-44.5" y="-13" rx="0" ry="0" width="89" height="26"/>
</clipPath>
<path style="stroke: none; stroke-width: 1; stroke-dasharray: none; stroke-linecap: butt; stroke-dashoffset: 0; stroke-linejoin: miter; stroke-miterlimit: 4; is-custom-font: none; font-file-url: none; fill: rgb(255,255,255); fill-rule: nonzero; opacity: 1;" transform=" translate(-261.947, -40.4004)" d="M 266.444 43.8 l -8.571 -11.294 a 2.1 2.1 0 0 0 -3.774 1.254 V 49.127 h 3.352 V 37.048 L 266.022 48.3 a 2.1 2.1 0 0 0 1.673 0.827 h 0 a 2.091 2.091 0 0 0 2.1 -2.084 V 31.675 h -3.351 Z" stroke-linecap="round"/>
</g>
		<g transform="matrix(1 0 0 1 13.1032 2.7918)" id="Path_5718" clip-path="url(#CLIPPATH_16)">
<clipPath id="CLIPPATH_16">
	<rect transform="matrix(1 0 0 1 -13.1031 -2.7918)" id="Rectangle_1079" x="-44.5" y="-13" rx="0" ry="0" width="89" height="26"/>
</clipPath>
<path style="stroke: none; stroke-width: 1; stroke-dasharray: none; stroke-linecap: butt; stroke-dashoffset: 0; stroke-linejoin: miter; stroke-miterlimit: 4; is-custom-font: none; font-file-url: none; fill: rgb(255,255,255); fill-rule: nonzero; opacity: 1;" transform=" translate(-392.3011, -78.7898)" d="M 395.48 73.344 a 6.267 6.267 0 0 0 -0.923 -0.4 a 6.784 6.784 0 0 0 -2.119 -0.364 c -0.046 0 -0.091 0 -0.137 0 a 6.4 6.4 0 0 0 -3.282 0.849 a 6 6 0 0 0 -2.254 2.262 a 6.469 6.469 0 0 0 0.057 6.326 a 5.929 5.929 0 0 0 2.3 2.2 a 6.425 6.425 0 0 0 0.935 0.413 A 6.769 6.769 0 0 0 392.3 85 a 6.655 6.655 0 0 0 2.239 -0.368 a 5.9 5.9 0 0 0 1.044 -0.482 a 6.005 6.005 0 0 0 2.254 -2.262 a 6.513 6.513 0 0 0 -0.057 -6.35 a 5.859 5.859 0 0 0 -2.3 -2.193 m -0.935 7.865 a 2.906 2.906 0 0 1 -2.106 0.94 l -0.137 0 a 3.421 3.421 0 0 1 -0.37 -0.019 a 2.866 2.866 0 0 1 -1.872 -0.923 a 3.8 3.8 0 0 1 -0.011 -4.845 a 2.843 2.843 0 0 1 1.883 -0.923 a 3.483 3.483 0 0 1 0.37 -0.018 l 0.137 0 a 2.891 2.891 0 0 1 2.117 0.939 a 3.8 3.8 0 0 1 -0.011 4.845" stroke-linecap="round"/>
</g>
		<g transform="matrix(1 0 0 1 25.6975 2.7866)" id="Path_5719" clip-path="url(#CLIPPATH_17)">
<clipPath id="CLIPPATH_17">
	<rect transform="matrix(1 0 0 1 -25.6975 -2.7866)" id="Rectangle_1079" x="-44.5" y="-13" rx="0" ry="0" width="89" height="26"/>
</clipPath>
<path style="stroke: none; stroke-width: 1; stroke-dasharray: none; stroke-linecap: butt; stroke-dashoffset: 0; stroke-linejoin: miter; stroke-miterlimit: 4; is-custom-font: none; font-file-url: none; fill: rgb(255,255,255); fill-rule: nonzero; opacity: 1;" transform=" translate(-487.8535, -81.1966)" d="M 488.261 82.62 l -0.361 1.068 l -2.728 -8.336 h -3.537 L 485.588 85.5 a 2.435 2.435 0 0 0 4.53 0 l 3.954 -10.147 h -3.352 Z" stroke-linecap="round"/>
</g>
		<g transform="matrix(1 0 0 1 38.2593 2.7889)" id="Path_5720" clip-path="url(#CLIPPATH_18)">
<clipPath id="CLIPPATH_18">
	<rect transform="matrix(1 0 0 1 -38.2593 -2.7888)" id="Rectangle_1079" x="-44.5" y="-13" rx="0" ry="0" width="89" height="26"/>
</clipPath>
<path style="stroke: none; stroke-width: 1; stroke-dasharray: none; stroke-linecap: butt; stroke-dashoffset: 0; stroke-linejoin: miter; stroke-miterlimit: 4; is-custom-font: none; font-file-url: none; fill: rgb(255,255,255); fill-rule: nonzero; opacity: 1;" transform=" translate(-582.2713, -78.7868)" d="M 585.437 72.942 l -0.045 1.516 a 3.913 3.913 0 0 0 -1.56 -1.389 a 4.792 4.792 0 0 0 -2.185 -0.494 a 5.264 5.264 0 0 0 -1.973 0.367 a 5.039 5.039 0 0 0 -0.94 0.494 a 5.788 5.788 0 0 0 -2 2.274 a 6.869 6.869 0 0 0 -0.705 3.111 a 7.074 7.074 0 0 0 0.717 3.249 a 5.28 5.28 0 0 0 1.952 2.17 a 5.085 5.085 0 0 0 0.78 0.39 a 5.789 5.789 0 0 0 4.317 -0.1 a 3.835 3.835 0 0 0 1.6 -1.389 l 0.045 1.492 h 3.075 V 72.942 Z m -0.831 8.267 a 2.932 2.932 0 0 1 -2.243 0.942 a 3.337 3.337 0 0 1 -0.878 -0.111 a 2.851 2.851 0 0 1 -1.364 -0.831 a 3.8 3.8 0 0 1 -0.011 -4.845 a 2.79 2.79 0 0 1 1.375 -0.832 a 3.37 3.37 0 0 1 0.878 -0.109 a 2.922 2.922 0 0 1 2.254 0.941 a 3.8 3.8 0 0 1 -0.011 4.845" stroke-linecap="round"/>
</g>
		<g transform="matrix(1 0 0 1 -26.5915 0.0204)" id="Path_5721" clip-path="url(#CLIPPATH_19)">
<clipPath id="CLIPPATH_19">
	<rect transform="matrix(1 0 0 1 26.5915 -0.0204)" id="Rectangle_1079" x="-44.5" y="-13" rx="0" ry="0" width="89" height="26"/>
</clipPath>
<path style="stroke: none; stroke-width: 1; stroke-dasharray: none; stroke-linecap: butt; stroke-dashoffset: 0; stroke-linejoin: miter; stroke-miterlimit: 4; is-custom-font: none; font-file-url: none; fill: rgb(255,255,255); fill-rule: nonzero; opacity: 1;" transform=" translate(-83.9745, -13.2744)" d="M 76.186 12.894 l 6.241 6.825 A 1.981 1.981 0 0 0 85.871 18.4 V 7.06 a 3.267 3.267 0 0 1 1.081 -2.425 L 91.763 0.293 v 19.4 a 6.6 6.6 0 0 1 -11.48 4.406 L 76.7 20.175 a 1.958 1.958 0 0 1 -0.514 -1.322 Z" stroke-linecap="round"/>
</g>
		<g transform="matrix(1 0 0 1 -36.7115 -0.0179)" id="Path_5722" clip-path="url(#CLIPPATH_20)">
<clipPath id="CLIPPATH_20">
	<rect transform="matrix(1 0 0 1 36.7115 0.0179)" id="Rectangle_1079" x="-44.5" y="-13" rx="0" ry="0" width="89" height="26"/>
</clipPath>
<path style="stroke: none; stroke-width: 1; stroke-dasharray: none; stroke-linecap: butt; stroke-dashoffset: 0; stroke-linejoin: miter; stroke-miterlimit: 4; is-custom-font: none; font-file-url: none; fill: rgb(255,255,255); fill-rule: nonzero; opacity: 1;" transform=" translate(-7.7885, -12.9821)" d="M 15.577 13.36 L 9.336 6.535 A 1.981 1.981 0 0 0 5.892 7.857 V 19.194 A 3.267 3.267 0 0 1 4.811 21.62 L 0 25.961 V 6.566 A 6.6 6.6 0 0 1 11.48 2.16 l 3.582 3.919 A 1.959 1.959 0 0 1 15.577 7.4 Z" stroke-linecap="round"/>
</g>
</g>
</g>
</svg>