<svg xmlns="http://www.w3.org/2000/svg" xmlns:xlink="http://www.w3.org/1999/xlink" version="1.1" width="1000" height="1000" viewBox="0 0 1000 1000" xml:space="preserve">
<desc>Created with Fabric.js 3.5.0</desc>
<defs>
</defs>
<rect x="0" y="0" width="100%" height="100%" fill="rgba(255,255,255,0)"/>
<g transform="matrix(0.1953 0 0 0.1953 499.968 499.982)" id="556339">
<g style="" vector-effect="non-scaling-stroke">
		<g transform="matrix(0.1333 0 0 -0.1333 -2007.3616 -0.6136)">
<path style="stroke: none; stroke-width: 1; stroke-dasharray: none; stroke-linecap: butt; stroke-dashoffset: 0; stroke-linejoin: miter; stroke-miterlimit: 4; is-custom-font: none; font-file-url: none; fill: rgb(255,255,255); fill-rule: nonzero; opacity: 1;" transform=" translate(-4145.7685, -10803.4412)" d="M 1750 15439 c -123 -24 -236 -116 -290 -232 c -26 -57 -79 -382 -634 -3915 c -437 -2774 -604 -3863 -600 -3892 c 11 -68 62 -139 124 -174 l 55 -31 l 914 -3 c 733 -2 916 0 923 10 c 5 8 7 4 3 -12 c -14 -70 -125 -798 -125 -824 c 0 -42 42 -128 74 -154 c 70 -54 44 -53 921 -50 l 810 3 l 59 29 c 116 57 181 148 210 291 c 8 44 79 485 157 980 c 77 495 147 930 155 968 c 32 153 127 258 269 296 c 22 6 144 11 270 12 c 127 1 286 6 355 10 c 661 44 1183 217 1610 532 c 112 83 306 269 397 382 c 328 405 547 962 640 1625 c 27 193 24 594 -5 754 c -84 453 -320 802 -686 1010 c -42 24 -73 46 -67 47 c 5 2 17 73 26 157 c 24 213 17 540 -14 697 c -111 547 -465 982 -995 1218 c -283 127 -710 226 -1081 253 c -49 3 -101 8 -115 12 c -42 10 -3311 11 -3360 1 z" stroke-linecap="round"/>
</g>
		<g transform="matrix(0.1333 0 0 -0.1333 -732.9704 46.636)">
<path style="stroke: none; stroke-width: 1; stroke-dasharray: none; stroke-linecap: butt; stroke-dashoffset: 0; stroke-linejoin: miter; stroke-miterlimit: 4; is-custom-font: none; font-file-url: none; fill: rgb(255,255,255); fill-rule: nonzero; opacity: 1;" transform=" translate(-13703.3549, -10449.5)" d="M 12215 13352 c -28 -10 -65 -28 -84 -41 c -39 -28 -87 -101 -101 -151 c -12 -46 -860 -5440 -860 -5471 c 0 -45 42 -112 85 -136 l 40 -23 l 570 2 c 636 3 591 -2 676 75 c 49 44 73 89 88 163 c 6 30 58 359 116 730 c 58 371 110 700 116 730 c 20 100 82 180 174 222 c 50 23 54 23 585 29 c 624 8 717 16 1019 95 c 770 200 1274 722 1485 1536 c 181 698 144 1233 -111 1617 c -240 359 -695 577 -1318 630 c -60 5 -632 9 -1270 10 c -1078 0 -1164 -1 -1210 -17 z m 1899 -1167 c 305 -45 463 -161 530 -385 c 52 -175 14 -499 -82 -702 c -123 -260 -328 -391 -687 -438 c -49 -6 -249 -14 -443 -17 l -353 -6 l 5 24 c 3 13 53 328 111 699 c 58 371 110 694 116 717 c 13 49 61 99 115 119 c 53 20 530 12 688 -11 z" stroke-linecap="round"/>
</g>
		<g transform="matrix(0.1333 0 0 -0.1333 1263.8939 46.9692)">
<path style="stroke: none; stroke-width: 1; stroke-dasharray: none; stroke-linecap: butt; stroke-dashoffset: 0; stroke-linejoin: miter; stroke-miterlimit: 4; is-custom-font: none; font-file-url: none; fill: rgb(255,255,255); fill-rule: nonzero; opacity: 1;" transform=" translate(-28679.8378, -10447)" d="M 27187 13356 c -81 -29 -148 -95 -177 -171 c -20 -53 -871 -5488 -864 -5520 c 9 -45 44 -91 89 -117 l 40 -23 l 585 0 l 585 0 l 42 22 c 50 27 87 73 102 128 c 6 22 66 387 132 810 c 82 524 127 784 140 815 c 27 61 91 124 153 151 c 50 22 61 22 526 25 c 351 2 515 6 630 18 c 742 78 1274 373 1623 901 c 74 113 193 357 242 495 c 129 370 198 825 174 1149 c -58 787 -560 1224 -1514 1320 c -49 5 -625 9 -1280 10 c -979 0 -1197 -2 -1228 -13 z m 1953 -1180 c 174 -35 270 -79 355 -162 c 127 -125 171 -327 130 -599 c -73 -485 -306 -701 -815 -755 c -110 -12 -738 -21 -744 -11 c -2 3 47 329 110 725 c 124 785 118 760 194 806 c 34 20 43 21 365 16 c 240 -3 350 -9 405 -20 z" stroke-linecap="round"/>
</g>
		<g transform="matrix(0.1333 0 0 -0.1333 2382.37 47.1692)">
<path style="stroke: none; stroke-width: 1; stroke-dasharray: none; stroke-linecap: butt; stroke-dashoffset: 0; stroke-linejoin: miter; stroke-miterlimit: 4; is-custom-font: none; font-file-url: none; fill: rgb(255,255,255); fill-rule: nonzero; opacity: 1;" transform=" translate(-37068.0468, -10445.5)" d="M 36935 13351 c -41 -25 -82 -74 -89 -108 c -18 -89 -866 -5528 -866 -5555 c 0 -43 37 -107 78 -135 c 18 -12 56 -25 85 -28 c 29 -4 252 -5 497 -3 l 445 3 l 57 28 c 73 36 134 104 153 171 c 8 28 206 1271 441 2763 c 300 1907 424 2722 420 2748 c -8 40 -55 99 -97 121 c -23 12 -115 14 -561 14 c -502 0 -535 -1 -563 -19 z" stroke-linecap="round"/>
</g>
		<g transform="matrix(0.1333 0 0 -0.1333 -108.0084 176.6312)">
<path style="stroke: none; stroke-width: 1; stroke-dasharray: none; stroke-linecap: butt; stroke-dashoffset: 0; stroke-linejoin: miter; stroke-miterlimit: 4; is-custom-font: none; font-file-url: none; fill: rgb(255,255,255); fill-rule: nonzero; opacity: 1;" transform=" translate(-18390.5519, -9474.7564)" d="M 18011 11509 c -435 -39 -871 -220 -1206 -501 c -446 -372 -738 -890 -840 -1488 c -114 -671 63 -1293 479 -1687 c 289 -274 697 -409 1201 -397 c 483 11 946 197 1289 519 c 27 25 51 44 53 41 c 2 -2 -5 -57 -17 -123 c -34 -204 -25 -259 53 -317 c 28 -21 39 -21 539 -24 c 438 -2 518 0 557 13 c 84 28 157 105 180 191 c 18 70 551 3474 551 3523 c 0 53 -25 99 -73 135 c -28 21 -39 21 -575 24 c -366 2 -559 0 -584 -8 c -45 -13 -94 -67 -107 -117 c -5 -21 -17 -92 -27 -158 c -9 -66 -20 -123 -24 -128 c -3 -4 -24 19 -46 50 c -172 254 -450 391 -896 443 c -119 14 -397 19 -507 9 z m 694 -1087 c 135 -38 201 -70 304 -146 c 202 -151 318 -459 282 -752 c -32 -260 -135 -488 -301 -667 c -221 -237 -506 -357 -849 -357 c -441 0 -748 224 -827 603 c -20 93 -19 288 1 397 c 91 491 438 843 920 936 c 104 20 378 12 470 -14 z" stroke-linecap="round"/>
</g>
		<g transform="matrix(0.1333 0 0 -0.1333 1888.6381 176.7765)">
<path style="stroke: none; stroke-width: 1; stroke-dasharray: none; stroke-linecap: butt; stroke-dashoffset: 0; stroke-linejoin: miter; stroke-miterlimit: 4; is-custom-font: none; font-file-url: none; fill: rgb(255,255,255); fill-rule: nonzero; opacity: 1;" transform=" translate(-33365.401, -9473.6651)" d="M 32951 11509 c -639 -69 -1219 -421 -1606 -974 c -304 -435 -474 -1039 -436 -1552 c 49 -649 364 -1159 862 -1392 c 335 -157 800 -202 1215 -116 c 337 69 687 249 912 468 c 72 71 70 75 42 -98 c -11 -66 -20 -135 -20 -153 c 0 -49 35 -108 82 -139 l 41 -28 l 511 0 l 511 0 l 57 28 c 61 30 106 75 138 137 c 27 52 574 3509 567 3582 c -2 31 -13 59 -31 83 c -52 68 -26 65 -641 65 c -615 0 -589 3 -641 -65 c -22 -29 -30 -61 -53 -197 l -27 -163 l -44 65 c -165 243 -415 374 -830 435 c -125 19 -489 27 -609 14 z m 626 -1070 c 95 -13 239 -59 311 -101 c 173 -99 304 -275 358 -483 c 23 -88 26 -317 5 -420 c -115 -583 -600 -962 -1191 -932 c -404 21 -676 226 -762 574 c -17 68 -22 117 -21 218 c 1 447 237 839 618 1030 c 215 108 447 146 682 114 z" stroke-linecap="round"/>
</g>
		<g transform="matrix(0.1333 0 0 -0.1333 611.2701 267.8271)">
<path style="stroke: none; stroke-width: 1; stroke-dasharray: none; stroke-linecap: butt; stroke-dashoffset: 0; stroke-linejoin: miter; stroke-miterlimit: 4; is-custom-font: none; font-file-url: none; fill: rgb(255,255,255); fill-rule: nonzero; opacity: 1;" transform=" translate(-23785.132, -8790.6397)" d="M 21460 11409 c -32 -13 -68 -47 -86 -81 c -34 -65 -39 -49 545 -1767 l 559 -1643 l -521 -737 c -287 -405 -529 -752 -539 -771 c -49 -93 5 -210 110 -240 c 25 -8 210 -10 577 -8 c 540 3 540 3 591 26 c 28 13 67 40 87 60 c 27 28 3207 4622 3382 4886 c 49 72 56 127 25 190 c -15 32 -35 54 -64 71 l -43 25 l -555 0 c -624 0 -613 1 -692 -73 c -27 -26 -316 -444 -740 -1070 c -382 -565 -698 -1027 -703 -1027 c -4 1 -142 450 -306 998 c -205 688 -306 1011 -325 1042 c -30 50 -103 104 -160 120 c -49 13 -1108 12 -1142 -1 z" stroke-linecap="round"/>
</g>
</g>
</g>
</svg>