<?xml version="1.0" encoding="UTF-8" standalone="no" ?>
<!DOCTYPE svg PUBLIC "-//W3C//DTD SVG 1.1//EN" "http://www.w3.org/Graphics/SVG/1.1/DTD/svg11.dtd">
<svg xmlns="http://www.w3.org/2000/svg" xmlns:xlink="http://www.w3.org/1999/xlink" version="1.1" width="1080" height="1080" viewBox="0 0 1080 1080" xml:space="preserve">
<desc>Created with Fabric.js 5.2.4</desc>
<defs>
</defs>
<rect x="0" y="0" width="100%" height="100%" fill="transparent"></rect>
<g transform="matrix(1 0 0 1 540 540)" id="ce472cdb-b010-43a9-a0c8-644252a01d68"  >
<rect style="stroke: none; stroke-width: 1; stroke-dasharray: none; stroke-linecap: butt; stroke-dashoffset: 0; stroke-linejoin: miter; stroke-miterlimit: 4; fill: rgb(255,255,255); fill-rule: nonzero; opacity: 1; visibility: hidden;" vector-effect="non-scaling-stroke"  x="-540" y="-540" rx="0" ry="0" width="1080" height="1080" />
</g>
<g transform="matrix(1 0 0 1 540 540)" id="f8d3f28e-ab70-4b8f-a541-465e83174f3e"  >
</g>
<g transform="matrix(3.25 0 0 3.25 540 540)"  >
<g style="" vector-effect="non-scaling-stroke"   >
		<g transform="matrix(0.1 0 0 -0.1 4.28 -128)"  >
<path style="stroke: none; stroke-width: 1; stroke-dasharray: none; stroke-linecap: butt; stroke-dashoffset: 0; stroke-linejoin: miter; stroke-miterlimit: 4; fill: rgb(255,255,255); fill-rule: nonzero; opacity: 1;" vector-effect="non-scaling-stroke"  transform=" translate(-1637.82, -2878.82)" d="M 1285 3025 C 1024 2988 630 2876 622 2837 C 618 2819 666 2720 678 2720 C 683 2720 736 2739 796 2761 C 1060 2861 1307 2904 1630 2904 C 1951 2905 2150 2873 2418 2780 C 2499 2752 2574 2728 2585 2727 C 2613 2724 2671 2837 2649 2851 C 2596 2884 2274 2975 2080 3011 C 1929 3039 1443 3047 1285 3025 z" stroke-linecap="round" />
</g>
		<g transform="matrix(0.1 0 0 -0.1 4 -33.62)"  >
<path style="stroke: none; stroke-width: 1; stroke-dasharray: none; stroke-linecap: butt; stroke-dashoffset: 0; stroke-linejoin: miter; stroke-miterlimit: 4; fill: rgb(255,255,255); fill-rule: nonzero; opacity: 1;" vector-effect="non-scaling-stroke"  transform=" translate(-1635, -1934.98)" d="M 1280 2839 C 1187 2827 1028 2792 935 2763 C 826 2729 700 2679 700 2670 C 700 2666 725 2637 755 2606 C 805 2555 949 2460 976 2460 C 982 2460 995 2479 1004 2503 C 1026 2563 1072 2587 1186 2600 C 1327 2616 1350 2614 1350 2588 C 1351 2552 1626 1030 1634 1023 C 1637 1020 1642 1019 1644 1021 C 1645 1023 1709 1374 1784 1800 C 1860 2226 1924 2583 1927 2594 C 1932 2611 1939 2612 2024 2605 C 2197 2592 2250 2569 2271 2499 C 2278 2478 2287 2460 2293 2460 C 2298 2460 2334 2477 2373 2497 C 2442 2533 2570 2644 2570 2667 C 2570 2684 2377 2756 2242 2790 C 2109 2823 1918 2853 1868 2848 C 1840 2845 1822 2829 1736 2723 L 1637 2602 L 1536 2726 L 1435 2850 L 1390 2849 C 1365 2848 1316 2844 1280 2839 z" stroke-linecap="round" />
</g>
		<g transform="matrix(0.1 0 0 -0.1 -93 128.88)"  >
<path style="stroke: none; stroke-width: 1; stroke-dasharray: none; stroke-linecap: butt; stroke-dashoffset: 0; stroke-linejoin: miter; stroke-miterlimit: 4; fill: rgb(255,255,255); fill-rule: nonzero; opacity: 1;" vector-effect="non-scaling-stroke"  transform=" translate(-665, -310)" d="M 480 441 C 480 408 527 380 581 380 L 630 380 L 630 270 L 630 160 L 665 160 L 700 160 L 700 269 L 700 378 L 755 382 C 814 387 850 410 850 442 C 850 459 838 460 665 460 C 489 460 480 459 480 441 z" stroke-linecap="round" />
</g>
		<g transform="matrix(0.1 0 0 -0.1 -44.5 117.63)"  >
<path style="stroke: none; stroke-width: 1; stroke-dasharray: none; stroke-linecap: butt; stroke-dashoffset: 0; stroke-linejoin: miter; stroke-miterlimit: 4; fill: rgb(255,255,255); fill-rule: nonzero; opacity: 1;" vector-effect="non-scaling-stroke"  transform=" translate(-1150, -422.5)" d="M 980 442 C 980 431 989 415 1001 404 C 1019 387 1038 385 1150 385 C 1262 385 1281 387 1299 404 C 1311 415 1320 431 1320 442 C 1320 459 1309 460 1150 460 C 991 460 980 459 980 442 z" stroke-linecap="round" />
</g>
		<g transform="matrix(0.1 0 0 -0.1 3.5 128.88)"  >
<path style="stroke: none; stroke-width: 1; stroke-dasharray: none; stroke-linecap: butt; stroke-dashoffset: 0; stroke-linejoin: miter; stroke-miterlimit: 4; fill: rgb(255,255,255); fill-rule: nonzero; opacity: 1;" vector-effect="non-scaling-stroke"  transform=" translate(-1630, -310)" d="M 1470 365 L 1470 270 L 1600 270 C 1721 270 1730 269 1730 251 C 1730 233 1720 231 1621 228 C 1521 225 1509 223 1486 201 C 1472 187 1460 173 1460 168 C 1460 164 1537 160 1630 160 L 1800 160 L 1800 250 L 1800 340 L 1670 340 C 1547 340 1540 341 1540 360 C 1540 378 1547 380 1629 380 C 1726 380 1775 392 1790 420 C 1811 458 1804 460 1635 460 L 1470 460 L 1470 365 z" stroke-linecap="round" />
</g>
		<g transform="matrix(0.1 0 0 -0.1 51.5 128.88)"  >
<path style="stroke: none; stroke-width: 1; stroke-dasharray: none; stroke-linecap: butt; stroke-dashoffset: 0; stroke-linejoin: miter; stroke-miterlimit: 4; fill: rgb(255,255,255); fill-rule: nonzero; opacity: 1;" vector-effect="non-scaling-stroke"  transform=" translate(-2110, -310)" d="M 1950 310 L 1950 160 L 2093 160 C 2220 160 2239 162 2253 178 C 2263 188 2270 204 2270 213 C 2270 228 2255 230 2145 230 L 2020 230 L 2020 345 L 2020 460 L 1985 460 L 1950 460 L 1950 310 z" stroke-linecap="round" />
</g>
		<g transform="matrix(0.1 0 0 -0.1 94.5 117.88)"  >
<path style="stroke: none; stroke-width: 1; stroke-dasharray: none; stroke-linecap: butt; stroke-dashoffset: 0; stroke-linejoin: miter; stroke-miterlimit: 4; fill: rgb(255,255,255); fill-rule: nonzero; opacity: 1;" vector-effect="non-scaling-stroke"  transform=" translate(-2540, -420)" d="M 2370 451 C 2370 398 2416 380 2548 380 C 2643 380 2661 383 2684 401 C 2698 412 2710 430 2710 441 C 2710 459 2701 460 2540 460 C 2443 460 2370 456 2370 451 z" stroke-linecap="round" />
</g>
		<g transform="matrix(0.1 0 0 -0.1 -44.55 129.38)"  >
<path style="stroke: none; stroke-width: 1; stroke-dasharray: none; stroke-linecap: butt; stroke-dashoffset: 0; stroke-linejoin: miter; stroke-miterlimit: 4; fill: rgb(255,255,255); fill-rule: nonzero; opacity: 1;" vector-effect="non-scaling-stroke"  transform=" translate(-1149.48, -305)" d="M 980 327 C 980 319 990 304 1003 292 C 1024 272 1037 270 1151 270 C 1269 270 1278 271 1298 293 C 1340 337 1332 340 1150 340 C 1015 340 980 337 980 327 z" stroke-linecap="round" />
</g>
		<g transform="matrix(0.1 0 0 -0.1 95 134.88)"  >
<path style="stroke: none; stroke-width: 1; stroke-dasharray: none; stroke-linecap: butt; stroke-dashoffset: 0; stroke-linejoin: miter; stroke-miterlimit: 4; fill: rgb(255,255,255); fill-rule: nonzero; opacity: 1;" vector-effect="non-scaling-stroke"  transform=" translate(-2545, -250)" d="M 2380 250 L 2380 160 L 2415 160 L 2450 160 L 2450 215 L 2450 270 L 2545 270 L 2640 270 L 2640 215 L 2640 160 L 2675 160 L 2710 160 L 2710 250 L 2710 340 L 2545 340 L 2380 340 L 2380 250 z" stroke-linecap="round" />
</g>
		<g transform="matrix(0.1 0 0 -0.1 -44.5 140.38)"  >
<path style="stroke: none; stroke-width: 1; stroke-dasharray: none; stroke-linecap: butt; stroke-dashoffset: 0; stroke-linejoin: miter; stroke-miterlimit: 4; fill: rgb(255,255,255); fill-rule: nonzero; opacity: 1;" vector-effect="non-scaling-stroke"  transform=" translate(-1150, -195)" d="M 980 212 C 980 168 1008 160 1152 160 C 1270 160 1289 162 1303 178 C 1313 188 1320 204 1320 213 C 1320 228 1302 230 1150 230 C 991 230 980 229 980 212 z" stroke-linecap="round" />
</g>
</g>
</g>
</svg>